<svg xmlns="http://www.w3.org/2000/svg" width="1400" height="840" viewBox="0 0 1400 840">
<style>text{font-family:Menlo,Monaco,Consolas,monospace;fill:#222}.small{font-size:12px}.axis{font-size:13px}.title{font-size:18px;font-weight:600}.sub{font-size:12px;fill:#444}</style>
<rect x="0" y="0" width="100%" height="100%" fill="#fff"/>
<text class="title" x="90" y="26">07_multi_dataset_ds2_rspace_contrib: xraytsubaki vs xraylarch</text>
<text class="sub" x="90" y="42">RMS(diff)=1.275e-03, Max|diff|=5.031e-03, contributions=2</text>
<line x1="90.00" y1="52" x2="90.00" y2="552" stroke="#efefef"/>
<line x1="90.00" y1="612" x2="90.00" y2="782" stroke="#efefef"/>
<text class="small" x="90.00" y="822" text-anchor="middle">0.0000</text>
<line x1="344.00" y1="52" x2="344.00" y2="552" stroke="#efefef"/>
<line x1="344.00" y1="612" x2="344.00" y2="782" stroke="#efefef"/>
<text class="small" x="344.00" y="822" text-anchor="middle">1.9942</text>
<line x1="598.00" y1="52" x2="598.00" y2="552" stroke="#efefef"/>
<line x1="598.00" y1="612" x2="598.00" y2="782" stroke="#efefef"/>
<text class="small" x="598.00" y="822" text-anchor="middle">3.9884</text>
<line x1="852.00" y1="52" x2="852.00" y2="552" stroke="#efefef"/>
<line x1="852.00" y1="612" x2="852.00" y2="782" stroke="#efefef"/>
<text class="small" x="852.00" y="822" text-anchor="middle">5.9825</text>
<line x1="1106.00" y1="52" x2="1106.00" y2="552" stroke="#efefef"/>
<line x1="1106.00" y1="612" x2="1106.00" y2="782" stroke="#efefef"/>
<text class="small" x="1106.00" y="822" text-anchor="middle">7.9767</text>
<line x1="1360.00" y1="52" x2="1360.00" y2="552" stroke="#efefef"/>
<line x1="1360.00" y1="612" x2="1360.00" y2="782" stroke="#efefef"/>
<text class="small" x="1360.00" y="822" text-anchor="middle">9.9709</text>
<line x1="90" y1="552.00" x2="1360" y2="552.00" stroke="#f3f3f3"/>
<text class="small" x="82" y="556.00" text-anchor="end">0.0000</text>
<line x1="90" y1="452.00" x2="1360" y2="452.00" stroke="#f3f3f3"/>
<text class="small" x="82" y="456.00" text-anchor="end">1.5658</text>
<line x1="90" y1="352.00" x2="1360" y2="352.00" stroke="#f3f3f3"/>
<text class="small" x="82" y="356.00" text-anchor="end">3.1316</text>
<line x1="90" y1="252.00" x2="1360" y2="252.00" stroke="#f3f3f3"/>
<text class="small" x="82" y="256.00" text-anchor="end">4.6974</text>
<line x1="90" y1="152.00" x2="1360" y2="152.00" stroke="#f3f3f3"/>
<text class="small" x="82" y="156.00" text-anchor="end">6.2632</text>
<line x1="90" y1="52.00" x2="1360" y2="52.00" stroke="#f3f3f3"/>
<text class="small" x="82" y="56.00" text-anchor="end">7.8290</text>
<line x1="90" y1="782.00" x2="1360" y2="782.00" stroke="#f3f3f3"/>
<text class="small" x="82" y="786.00" text-anchor="end">-0.0050</text>
<line x1="90" y1="748.00" x2="1360" y2="748.00" stroke="#f3f3f3"/>
<text class="small" x="82" y="752.00" text-anchor="end">-0.0030</text>
<line x1="90" y1="714.00" x2="1360" y2="714.00" stroke="#f3f3f3"/>
<text class="small" x="82" y="718.00" text-anchor="end">-0.0010</text>
<line x1="90" y1="680.00" x2="1360" y2="680.00" stroke="#f3f3f3"/>
<text class="small" x="82" y="684.00" text-anchor="end">0.0010</text>
<line x1="90" y1="646.00" x2="1360" y2="646.00" stroke="#f3f3f3"/>
<text class="small" x="82" y="650.00" text-anchor="end">0.0030</text>
<line x1="90" y1="612.00" x2="1360" y2="612.00" stroke="#f3f3f3"/>
<text class="small" x="82" y="616.00" text-anchor="end">0.0050</text>
<rect x="90" y="52" width="1270" height="500" fill="none" stroke="#bcbcbc"/>
<rect x="90" y="612" width="1270" height="170" fill="none" stroke="#bcbcbc"/>
<polyline fill="none" stroke="#7b61ff" stroke-width="1.1" points="90.00,552.00 93.91,552.00 97.82,552.00 101.72,552.00 105.63,552.00 109.54,552.00 113.45,552.00 117.35,552.00 121.26,552.00 125.17,552.00 129.08,552.00 132.98,552.00 136.89,552.00 140.80,552.00 144.71,552.00 148.62,552.00 152.52,552.00 156.43,552.00 160.34,552.00 164.25,552.00 168.15,552.00 172.06,552.00 175.97,552.00 179.88,552.00 183.78,552.00 187.69,552.00 191.60,552.00 195.51,552.00 199.42,552.00 203.32,552.00 207.23,552.00 211.14,552.00 215.05,535.74 218.95,534.41 222.86,534.69 226.77,536.67 230.68,540.23 234.58,544.70 238.49,546.92 242.40,542.63 246.31,536.53 250.22,530.92 254.12,526.72 258.03,524.54 261.94,524.74 265.85,527.42 269.75,532.31 273.66,538.29 277.57,541.36 281.48,536.08 285.38,526.55 289.29,516.36 293.20,506.93 297.11,499.10 301.02,493.48 304.92,490.48 308.83,490.28 312.74,492.74 316.65,496.91 320.55,500.20 324.46,497.47 328.37,483.80 332.28,458.82 336.18,424.88 340.09,384.23 344.00,338.84 347.91,290.66 351.82,241.79 355.72,194.43 359.63,150.87 363.54,113.26 367.45,83.55 371.35,63.29 375.26,53.54 379.17,54.80 383.08,66.95 386.98,89.30 390.89,120.59 394.80,159.16 398.71,203.03 402.62,250.07 406.52,298.13 410.43,345.22 414.34,389.59 418.25,429.83 422.15,464.93 426.06,494.20 429.97,517.15 433.88,532.69 437.78,537.78 441.69,534.52 445.60,530.50 449.51,528.03 453.42,527.17 457.32,527.55 461.23,528.79 465.14,530.52 469.05,552.00 472.95,552.00 476.86,552.00 480.77,552.00 484.68,552.00 488.58,552.00 492.49,552.00 496.40,552.00 500.31,552.00 504.22,552.00 508.12,552.00 512.03,552.00 515.94,552.00 519.85,552.00 523.75,552.00 527.66,552.00 531.57,552.00 535.48,552.00 539.38,552.00 543.29,552.00 547.20,552.00 551.11,552.00 555.02,552.00 558.92,552.00 562.83,552.00 566.74,552.00 570.65,552.00 574.55,552.00 578.46,552.00 582.37,552.00 586.28,552.00 590.18,552.00 594.09,552.00 598.00,552.00 601.91,552.00 605.82,552.00 609.72,552.00 613.63,552.00 617.54,552.00 621.45,552.00 625.35,552.00 629.26,552.00 633.17,552.00 637.08,552.00 640.98,552.00 644.89,552.00 648.80,552.00 652.71,552.00 656.62,552.00 660.52,552.00 664.43,552.00 668.34,552.00 672.25,552.00 676.15,552.00 680.06,552.00 683.97,552.00 687.88,552.00 691.78,552.00 695.69,552.00 699.60,552.00 703.51,552.00 707.42,552.00 711.32,552.00 715.23,552.00 719.14,552.00 723.05,552.00 726.95,552.00 730.86,552.00 734.77,552.00 738.68,552.00 742.58,552.00 746.49,552.00 750.40,552.00 754.31,552.00 758.22,552.00 762.12,552.00 766.03,552.00 769.94,552.00 773.85,552.00 777.75,552.00 781.66,552.00 785.57,552.00 789.48,552.00 793.38,552.00 797.29,552.00 801.20,552.00 805.11,552.00 809.02,552.00 812.92,552.00 816.83,552.00 820.74,552.00 824.65,552.00 828.55,552.00 832.46,552.00 836.37,552.00 840.28,552.00 844.18,552.00 848.09,552.00 852.00,552.00 855.91,552.00 859.82,552.00 863.72,552.00 867.63,552.00 871.54,552.00 875.45,552.00 879.35,552.00 883.26,552.00 887.17,552.00 891.08,552.00 894.98,552.00 898.89,552.00 902.80,552.00 906.71,552.00 910.62,552.00 914.52,552.00 918.43,552.00 922.34,552.00 926.25,552.00 930.15,552.00 934.06,552.00 937.97,552.00 941.88,552.00 945.78,552.00 949.69,552.00 953.60,552.00 957.51,552.00 961.42,552.00 965.32,552.00 969.23,552.00 973.14,552.00 977.05,552.00 980.95,552.00 984.86,552.00 988.77,552.00 992.68,552.00 996.58,552.00 1000.49,552.00 1004.40,552.00 1008.31,552.00 1012.22,552.00 1016.12,552.00 1020.03,552.00 1023.94,552.00 1027.85,552.00 1031.75,552.00 1035.66,552.00 1039.57,552.00 1043.48,552.00 1047.38,552.00 1051.29,552.00 1055.20,552.00 1059.11,552.00 1063.02,552.00 1066.92,552.00 1070.83,552.00 1074.74,552.00 1078.65,552.00 1082.55,552.00 1086.46,552.00 1090.37,552.00 1094.28,552.00 1098.18,552.00 1102.09,552.00 1106.00,552.00 1109.91,552.00 1113.82,552.00 1117.72,552.00 1121.63,552.00 1125.54,552.00 1129.45,552.00 1133.35,552.00 1137.26,552.00 1141.17,552.00 1145.08,552.00 1148.98,552.00 1152.89,552.00 1156.80,552.00 1160.71,552.00 1164.62,552.00 1168.52,552.00 1172.43,552.00 1176.34,552.00 1180.25,552.00 1184.15,552.00 1188.06,552.00 1191.97,552.00 1195.88,552.00 1199.78,552.00 1203.69,552.00 1207.60,552.00 1211.51,552.00 1215.42,552.00 1219.32,552.00 1223.23,552.00 1227.14,552.00 1231.05,552.00 1234.95,552.00 1238.86,552.00 1242.77,552.00 1246.68,552.00 1250.58,552.00 1254.49,552.00 1258.40,552.00 1262.31,552.00 1266.22,552.00 1270.12,552.00 1274.03,552.00 1277.94,552.00 1281.85,552.00 1285.75,552.00 1289.66,552.00 1293.57,552.00 1297.48,552.00 1301.38,552.00 1305.29,552.00 1309.20,552.00 1313.11,552.00 1317.02,552.00 1320.92,552.00 1324.83,552.00 1328.74,552.00 1332.65,552.00 1336.55,552.00 1340.46,552.00 1344.37,552.00 1348.28,552.00 1352.18,552.00 1356.09,552.00 1360.00,552.00" />
<polyline fill="none" stroke="#f4a259" stroke-width="1.1" points="90.00,552.00 93.91,552.00 97.82,552.00 101.72,552.00 105.63,552.00 109.54,552.00 113.45,552.00 117.35,552.00 121.26,552.00 125.17,552.00 129.08,552.00 132.98,552.00 136.89,552.00 140.80,552.00 144.71,552.00 148.62,552.00 152.52,552.00 156.43,552.00 160.34,552.00 164.25,552.00 168.15,552.00 172.06,552.00 175.97,552.00 179.88,552.00 183.78,552.00 187.69,552.00 191.60,552.00 195.51,552.00 199.42,552.00 203.32,552.00 207.23,552.00 211.14,552.00 215.05,551.95 218.95,551.95 222.86,551.93 226.77,551.90 230.68,551.87 234.58,551.85 238.49,551.84 242.40,551.84 246.31,551.87 250.22,551.91 254.12,551.91 258.03,551.85 261.94,551.77 265.85,551.69 269.75,551.64 273.66,551.61 277.57,551.63 281.48,551.70 285.38,551.79 289.29,551.83 293.20,551.72 297.11,551.55 301.02,551.39 304.92,551.26 308.83,551.19 312.74,551.20 316.65,551.30 320.55,551.45 324.46,551.59 328.37,551.54 332.28,551.30 336.18,551.01 340.09,550.75 344.00,550.58 347.91,550.54 351.82,550.63 355.72,550.86 359.63,551.19 363.54,551.48 367.45,551.36 371.35,550.91 375.26,550.44 379.17,550.06 383.08,549.83 386.98,549.79 390.89,549.94 394.80,550.29 398.71,550.79 402.62,551.29 406.52,551.27 410.43,550.69 414.34,550.02 418.25,549.43 422.15,548.95 426.06,548.61 429.97,548.40 433.88,548.31 437.78,548.33 441.69,548.45 445.60,548.70 449.51,549.06 453.42,549.35 457.32,549.03 461.23,547.70 465.14,545.45 469.05,552.00 472.95,552.00 476.86,552.00 480.77,552.00 484.68,552.00 488.58,552.00 492.49,552.00 496.40,552.00 500.31,552.00 504.22,552.00 508.12,552.00 512.03,552.00 515.94,552.00 519.85,552.00 523.75,552.00 527.66,552.00 531.57,552.00 535.48,552.00 539.38,552.00 543.29,552.00 547.20,552.00 551.11,552.00 555.02,552.00 558.92,552.00 562.83,552.00 566.74,552.00 570.65,552.00 574.55,552.00 578.46,552.00 582.37,552.00 586.28,552.00 590.18,552.00 594.09,552.00 598.00,552.00 601.91,552.00 605.82,552.00 609.72,552.00 613.63,552.00 617.54,552.00 621.45,552.00 625.35,552.00 629.26,552.00 633.17,552.00 637.08,552.00 640.98,552.00 644.89,552.00 648.80,552.00 652.71,552.00 656.62,552.00 660.52,552.00 664.43,552.00 668.34,552.00 672.25,552.00 676.15,552.00 680.06,552.00 683.97,552.00 687.88,552.00 691.78,552.00 695.69,552.00 699.60,552.00 703.51,552.00 707.42,552.00 711.32,552.00 715.23,552.00 719.14,552.00 723.05,552.00 726.95,552.00 730.86,552.00 734.77,552.00 738.68,552.00 742.58,552.00 746.49,552.00 750.40,552.00 754.31,552.00 758.22,552.00 762.12,552.00 766.03,552.00 769.94,552.00 773.85,552.00 777.75,552.00 781.66,552.00 785.57,552.00 789.48,552.00 793.38,552.00 797.29,552.00 801.20,552.00 805.11,552.00 809.02,552.00 812.92,552.00 816.83,552.00 820.74,552.00 824.65,552.00 828.55,552.00 832.46,552.00 836.37,552.00 840.28,552.00 844.18,552.00 848.09,552.00 852.00,552.00 855.91,552.00 859.82,552.00 863.72,552.00 867.63,552.00 871.54,552.00 875.45,552.00 879.35,552.00 883.26,552.00 887.17,552.00 891.08,552.00 894.98,552.00 898.89,552.00 902.80,552.00 906.71,552.00 910.62,552.00 914.52,552.00 918.43,552.00 922.34,552.00 926.25,552.00 930.15,552.00 934.06,552.00 937.97,552.00 941.88,552.00 945.78,552.00 949.69,552.00 953.60,552.00 957.51,552.00 961.42,552.00 965.32,552.00 969.23,552.00 973.14,552.00 977.05,552.00 980.95,552.00 984.86,552.00 988.77,552.00 992.68,552.00 996.58,552.00 1000.49,552.00 1004.40,552.00 1008.31,552.00 1012.22,552.00 1016.12,552.00 1020.03,552.00 1023.94,552.00 1027.85,552.00 1031.75,552.00 1035.66,552.00 1039.57,552.00 1043.48,552.00 1047.38,552.00 1051.29,552.00 1055.20,552.00 1059.11,552.00 1063.02,552.00 1066.92,552.00 1070.83,552.00 1074.74,552.00 1078.65,552.00 1082.55,552.00 1086.46,552.00 1090.37,552.00 1094.28,552.00 1098.18,552.00 1102.09,552.00 1106.00,552.00 1109.91,552.00 1113.82,552.00 1117.72,552.00 1121.63,552.00 1125.54,552.00 1129.45,552.00 1133.35,552.00 1137.26,552.00 1141.17,552.00 1145.08,552.00 1148.98,552.00 1152.89,552.00 1156.80,552.00 1160.71,552.00 1164.62,552.00 1168.52,552.00 1172.43,552.00 1176.34,552.00 1180.25,552.00 1184.15,552.00 1188.06,552.00 1191.97,552.00 1195.88,552.00 1199.78,552.00 1203.69,552.00 1207.60,552.00 1211.51,552.00 1215.42,552.00 1219.32,552.00 1223.23,552.00 1227.14,552.00 1231.05,552.00 1234.95,552.00 1238.86,552.00 1242.77,552.00 1246.68,552.00 1250.58,552.00 1254.49,552.00 1258.40,552.00 1262.31,552.00 1266.22,552.00 1270.12,552.00 1274.03,552.00 1277.94,552.00 1281.85,552.00 1285.75,552.00 1289.66,552.00 1293.57,552.00 1297.48,552.00 1301.38,552.00 1305.29,552.00 1309.20,552.00 1313.11,552.00 1317.02,552.00 1320.92,552.00 1324.83,552.00 1328.74,552.00 1332.65,552.00 1336.55,552.00 1340.46,552.00 1344.37,552.00 1348.28,552.00 1352.18,552.00 1356.09,552.00 1360.00,552.00" />
<polyline fill="none" stroke="#2e6fdb" stroke-width="1.8" stroke-dasharray="5,4" points="90.00,552.00 93.91,552.00 97.82,552.00 101.72,552.00 105.63,552.00 109.54,552.00 113.45,552.00 117.35,552.00 121.26,552.00 125.17,552.00 129.08,552.00 132.98,552.00 136.89,552.00 140.80,552.00 144.71,552.00 148.62,552.00 152.52,552.00 156.43,552.00 160.34,552.00 164.25,552.00 168.15,552.00 172.06,552.00 175.97,552.00 179.88,552.00 183.78,552.00 187.69,552.00 191.60,552.00 195.51,552.00 199.42,552.00 203.32,552.00 207.23,552.00 211.14,552.00 215.05,535.69 218.95,534.29 222.86,534.48 226.77,536.41 230.68,539.93 234.58,544.45 238.49,546.99 242.40,542.88 246.31,536.73 250.22,531.01 254.12,526.68 258.03,524.37 261.94,524.44 265.85,527.01 269.75,531.79 273.66,537.65 277.57,540.69 281.48,535.66 285.38,526.22 289.29,516.02 293.20,506.57 297.11,498.73 301.02,493.14 304.92,490.18 308.83,490.06 312.74,492.56 316.65,496.75 320.55,500.01 324.46,497.32 328.37,483.83 332.28,459.16 336.18,425.55 340.09,385.22 344.00,340.07 347.91,292.01 351.82,243.11 355.72,195.58 359.63,151.68 363.54,113.62 367.45,83.37 371.35,62.54 375.26,52.27 379.17,53.11 383.08,65.00 386.98,87.28 390.89,118.72 394.80,157.64 398.71,202.05 402.62,249.75 406.52,298.56 410.43,346.39 414.34,391.44 418.25,432.26 422.15,467.77 426.06,497.24 429.97,520.01 433.88,534.23 437.78,536.20 441.69,531.45 445.60,527.29 449.51,525.31 453.42,525.52 457.32,527.70 461.23,531.58 465.14,536.73 469.05,552.00 472.95,552.00 476.86,552.00 480.77,552.00 484.68,552.00 488.58,552.00 492.49,552.00 496.40,552.00 500.31,552.00 504.22,552.00 508.12,552.00 512.03,552.00 515.94,552.00 519.85,552.00 523.75,552.00 527.66,552.00 531.57,552.00 535.48,552.00 539.38,552.00 543.29,552.00 547.20,552.00 551.11,552.00 555.02,552.00 558.92,552.00 562.83,552.00 566.74,552.00 570.65,552.00 574.55,552.00 578.46,552.00 582.37,552.00 586.28,552.00 590.18,552.00 594.09,552.00 598.00,552.00 601.91,552.00 605.82,552.00 609.72,552.00 613.63,552.00 617.54,552.00 621.45,552.00 625.35,552.00 629.26,552.00 633.17,552.00 637.08,552.00 640.98,552.00 644.89,552.00 648.80,552.00 652.71,552.00 656.62,552.00 660.52,552.00 664.43,552.00 668.34,552.00 672.25,552.00 676.15,552.00 680.06,552.00 683.97,552.00 687.88,552.00 691.78,552.00 695.69,552.00 699.60,552.00 703.51,552.00 707.42,552.00 711.32,552.00 715.23,552.00 719.14,552.00 723.05,552.00 726.95,552.00 730.86,552.00 734.77,552.00 738.68,552.00 742.58,552.00 746.49,552.00 750.40,552.00 754.31,552.00 758.22,552.00 762.12,552.00 766.03,552.00 769.94,552.00 773.85,552.00 777.75,552.00 781.66,552.00 785.57,552.00 789.48,552.00 793.38,552.00 797.29,552.00 801.20,552.00 805.11,552.00 809.02,552.00 812.92,552.00 816.83,552.00 820.74,552.00 824.65,552.00 828.55,552.00 832.46,552.00 836.37,552.00 840.28,552.00 844.18,552.00 848.09,552.00 852.00,552.00 855.91,552.00 859.82,552.00 863.72,552.00 867.63,552.00 871.54,552.00 875.45,552.00 879.35,552.00 883.26,552.00 887.17,552.00 891.08,552.00 894.98,552.00 898.89,552.00 902.80,552.00 906.71,552.00 910.62,552.00 914.52,552.00 918.43,552.00 922.34,552.00 926.25,552.00 930.15,552.00 934.06,552.00 937.97,552.00 941.88,552.00 945.78,552.00 949.69,552.00 953.60,552.00 957.51,552.00 961.42,552.00 965.32,552.00 969.23,552.00 973.14,552.00 977.05,552.00 980.95,552.00 984.86,552.00 988.77,552.00 992.68,552.00 996.58,552.00 1000.49,552.00 1004.40,552.00 1008.31,552.00 1012.22,552.00 1016.12,552.00 1020.03,552.00 1023.94,552.00 1027.85,552.00 1031.75,552.00 1035.66,552.00 1039.57,552.00 1043.48,552.00 1047.38,552.00 1051.29,552.00 1055.20,552.00 1059.11,552.00 1063.02,552.00 1066.92,552.00 1070.83,552.00 1074.74,552.00 1078.65,552.00 1082.55,552.00 1086.46,552.00 1090.37,552.00 1094.28,552.00 1098.18,552.00 1102.09,552.00 1106.00,552.00 1109.91,552.00 1113.82,552.00 1117.72,552.00 1121.63,552.00 1125.54,552.00 1129.45,552.00 1133.35,552.00 1137.26,552.00 1141.17,552.00 1145.08,552.00 1148.98,552.00 1152.89,552.00 1156.80,552.00 1160.71,552.00 1164.62,552.00 1168.52,552.00 1172.43,552.00 1176.34,552.00 1180.25,552.00 1184.15,552.00 1188.06,552.00 1191.97,552.00 1195.88,552.00 1199.78,552.00 1203.69,552.00 1207.60,552.00 1211.51,552.00 1215.42,552.00 1219.32,552.00 1223.23,552.00 1227.14,552.00 1231.05,552.00 1234.95,552.00 1238.86,552.00 1242.77,552.00 1246.68,552.00 1250.58,552.00 1254.49,552.00 1258.40,552.00 1262.31,552.00 1266.22,552.00 1270.12,552.00 1274.03,552.00 1277.94,552.00 1281.85,552.00 1285.75,552.00 1289.66,552.00 1293.57,552.00 1297.48,552.00 1301.38,552.00 1305.29,552.00 1309.20,552.00 1313.11,552.00 1317.02,552.00 1320.92,552.00 1324.83,552.00 1328.74,552.00 1332.65,552.00 1336.55,552.00 1340.46,552.00 1344.37,552.00 1348.28,552.00 1352.18,552.00 1356.09,552.00 1360.00,552.00" />
<polyline fill="none" stroke="#cc3f3f" stroke-width="1.8" points="90.00,552.00 93.91,552.00 97.82,552.00 101.72,552.00 105.63,552.00 109.54,552.00 113.45,552.00 117.35,552.00 121.26,552.00 125.17,552.00 129.08,552.00 132.98,552.00 136.89,552.00 140.80,552.00 144.71,552.00 148.62,552.00 152.52,552.00 156.43,552.00 160.34,552.00 164.25,552.00 168.15,552.00 172.06,552.00 175.97,552.00 179.88,552.00 183.78,552.00 187.69,552.00 191.60,552.00 195.51,552.00 199.42,552.00 203.32,552.00 207.23,552.00 211.14,552.00 215.05,535.76 218.95,534.40 222.86,534.64 226.77,536.59 230.68,540.11 234.58,544.56 238.49,546.87 242.40,542.68 246.31,536.57 250.22,530.91 254.12,526.65 258.03,524.39 261.94,524.52 265.85,527.15 269.75,531.98 273.66,537.92 277.57,541.01 281.48,535.89 285.38,526.39 289.29,516.19 293.20,506.74 297.11,498.93 301.02,493.35 304.92,490.41 308.83,490.28 312.74,492.79 316.65,496.99 320.55,500.28 324.46,497.62 328.37,484.15 332.28,459.46 336.18,425.83 340.09,385.46 344.00,340.25 347.91,292.13 351.82,243.15 355.72,195.53 359.63,151.55 363.54,113.42 367.45,83.12 371.35,62.27 375.26,52.00 379.17,52.86 383.08,64.80 386.98,87.13 390.89,118.64 394.80,157.63 398.71,202.09 402.62,249.84 406.52,298.68 410.43,346.52 414.34,391.56 418.25,432.34 422.15,467.81 426.06,497.22 429.97,519.88 433.88,533.95 437.78,535.93 441.69,531.29 445.60,527.21 449.51,525.26 453.42,525.47 457.32,527.63 461.23,531.44 465.14,536.50 469.05,552.00 472.95,552.00 476.86,552.00 480.77,552.00 484.68,552.00 488.58,552.00 492.49,552.00 496.40,552.00 500.31,552.00 504.22,552.00 508.12,552.00 512.03,552.00 515.94,552.00 519.85,552.00 523.75,552.00 527.66,552.00 531.57,552.00 535.48,552.00 539.38,552.00 543.29,552.00 547.20,552.00 551.11,552.00 555.02,552.00 558.92,552.00 562.83,552.00 566.74,552.00 570.65,552.00 574.55,552.00 578.46,552.00 582.37,552.00 586.28,552.00 590.18,552.00 594.09,552.00 598.00,552.00 601.91,552.00 605.82,552.00 609.72,552.00 613.63,552.00 617.54,552.00 621.45,552.00 625.35,552.00 629.26,552.00 633.17,552.00 637.08,552.00 640.98,552.00 644.89,552.00 648.80,552.00 652.71,552.00 656.62,552.00 660.52,552.00 664.43,552.00 668.34,552.00 672.25,552.00 676.15,552.00 680.06,552.00 683.97,552.00 687.88,552.00 691.78,552.00 695.69,552.00 699.60,552.00 703.51,552.00 707.42,552.00 711.32,552.00 715.23,552.00 719.14,552.00 723.05,552.00 726.95,552.00 730.86,552.00 734.77,552.00 738.68,552.00 742.58,552.00 746.49,552.00 750.40,552.00 754.31,552.00 758.22,552.00 762.12,552.00 766.03,552.00 769.94,552.00 773.85,552.00 777.75,552.00 781.66,552.00 785.57,552.00 789.48,552.00 793.38,552.00 797.29,552.00 801.20,552.00 805.11,552.00 809.02,552.00 812.92,552.00 816.83,552.00 820.74,552.00 824.65,552.00 828.55,552.00 832.46,552.00 836.37,552.00 840.28,552.00 844.18,552.00 848.09,552.00 852.00,552.00 855.91,552.00 859.82,552.00 863.72,552.00 867.63,552.00 871.54,552.00 875.45,552.00 879.35,552.00 883.26,552.00 887.17,552.00 891.08,552.00 894.98,552.00 898.89,552.00 902.80,552.00 906.71,552.00 910.62,552.00 914.52,552.00 918.43,552.00 922.34,552.00 926.25,552.00 930.15,552.00 934.06,552.00 937.97,552.00 941.88,552.00 945.78,552.00 949.69,552.00 953.60,552.00 957.51,552.00 961.42,552.00 965.32,552.00 969.23,552.00 973.14,552.00 977.05,552.00 980.95,552.00 984.86,552.00 988.77,552.00 992.68,552.00 996.58,552.00 1000.49,552.00 1004.40,552.00 1008.31,552.00 1012.22,552.00 1016.12,552.00 1020.03,552.00 1023.94,552.00 1027.85,552.00 1031.75,552.00 1035.66,552.00 1039.57,552.00 1043.48,552.00 1047.38,552.00 1051.29,552.00 1055.20,552.00 1059.11,552.00 1063.02,552.00 1066.92,552.00 1070.83,552.00 1074.74,552.00 1078.65,552.00 1082.55,552.00 1086.46,552.00 1090.37,552.00 1094.28,552.00 1098.18,552.00 1102.09,552.00 1106.00,552.00 1109.91,552.00 1113.82,552.00 1117.72,552.00 1121.63,552.00 1125.54,552.00 1129.45,552.00 1133.35,552.00 1137.26,552.00 1141.17,552.00 1145.08,552.00 1148.98,552.00 1152.89,552.00 1156.80,552.00 1160.71,552.00 1164.62,552.00 1168.52,552.00 1172.43,552.00 1176.34,552.00 1180.25,552.00 1184.15,552.00 1188.06,552.00 1191.97,552.00 1195.88,552.00 1199.78,552.00 1203.69,552.00 1207.60,552.00 1211.51,552.00 1215.42,552.00 1219.32,552.00 1223.23,552.00 1227.14,552.00 1231.05,552.00 1234.95,552.00 1238.86,552.00 1242.77,552.00 1246.68,552.00 1250.58,552.00 1254.49,552.00 1258.40,552.00 1262.31,552.00 1266.22,552.00 1270.12,552.00 1274.03,552.00 1277.94,552.00 1281.85,552.00 1285.75,552.00 1289.66,552.00 1293.57,552.00 1297.48,552.00 1301.38,552.00 1305.29,552.00 1309.20,552.00 1313.11,552.00 1317.02,552.00 1320.92,552.00 1324.83,552.00 1328.74,552.00 1332.65,552.00 1336.55,552.00 1340.46,552.00 1344.37,552.00 1348.28,552.00 1352.18,552.00 1356.09,552.00 1360.00,552.00" />
<polyline fill="none" stroke="#2a9d5b" stroke-width="1.4" points="90.00,697.00 93.91,697.00 97.82,697.00 101.72,697.00 105.63,697.00 109.54,697.00 113.45,697.00 117.35,697.00 121.26,697.00 125.17,697.00 129.08,697.00 132.98,697.00 136.89,697.00 140.80,697.00 144.71,697.00 148.62,697.00 152.52,697.00 156.43,697.00 160.34,697.00 164.25,697.00 168.15,697.00 172.06,697.00 175.97,697.00 179.88,697.00 183.78,697.00 187.69,697.00 191.60,697.00 195.51,697.00 199.42,697.00 203.32,697.00 207.23,697.00 211.14,697.00 215.05,716.61 218.95,728.46 222.86,738.52 226.77,744.68 230.68,744.10 234.58,727.86 238.49,664.75 242.40,643.71 246.31,655.43 250.22,670.93 254.12,687.35 258.03,703.52 261.94,718.75 265.85,733.08 269.75,748.17 273.66,768.35 277.57,782.00 281.48,755.75 285.38,741.20 289.29,739.83 293.20,743.67 297.11,748.85 301.02,753.29 304.92,756.00 308.83,757.01 312.74,757.55 316.65,760.16 320.55,767.42 324.46,776.71 328.37,780.40 332.28,777.74 336.18,770.89 340.09,760.06 344.00,745.08 347.91,726.42 351.82,705.26 355.72,683.29 359.63,662.48 363.54,644.81 367.45,631.96 371.35,625.12 375.26,624.83 379.17,630.89 383.08,642.40 386.98,657.88 390.89,675.44 394.80,693.05 398.71,708.79 402.62,721.03 406.52,728.67 410.43,731.13 414.34,728.34 418.25,720.53 422.15,707.84 426.06,689.55 429.97,662.47 433.88,624.69 437.78,624.95 441.69,656.04 445.60,675.27 449.51,684.25 453.42,684.87 457.32,677.19 461.23,660.86 465.14,636.97 469.05,697.00 472.95,697.00 476.86,697.00 480.77,697.00 484.68,697.00 488.58,697.00 492.49,697.00 496.40,697.00 500.31,697.00 504.22,697.00 508.12,697.00 512.03,697.00 515.94,697.00 519.85,697.00 523.75,697.00 527.66,697.00 531.57,697.00 535.48,697.00 539.38,697.00 543.29,697.00 547.20,697.00 551.11,697.00 555.02,697.00 558.92,697.00 562.83,697.00 566.74,697.00 570.65,697.00 574.55,697.00 578.46,697.00 582.37,697.00 586.28,697.00 590.18,697.00 594.09,697.00 598.00,697.00 601.91,697.00 605.82,697.00 609.72,697.00 613.63,697.00 617.54,697.00 621.45,697.00 625.35,697.00 629.26,697.00 633.17,697.00 637.08,697.00 640.98,697.00 644.89,697.00 648.80,697.00 652.71,697.00 656.62,697.00 660.52,697.00 664.43,697.00 668.34,697.00 672.25,697.00 676.15,697.00 680.06,697.00 683.97,697.00 687.88,697.00 691.78,697.00 695.69,697.00 699.60,697.00 703.51,697.00 707.42,697.00 711.32,697.00 715.23,697.00 719.14,697.00 723.05,697.00 726.95,697.00 730.86,697.00 734.77,697.00 738.68,697.00 742.58,697.00 746.49,697.00 750.40,697.00 754.31,697.00 758.22,697.00 762.12,697.00 766.03,697.00 769.94,697.00 773.85,697.00 777.75,697.00 781.66,697.00 785.57,697.00 789.48,697.00 793.38,697.00 797.29,697.00 801.20,697.00 805.11,697.00 809.02,697.00 812.92,697.00 816.83,697.00 820.74,697.00 824.65,697.00 828.55,697.00 832.46,697.00 836.37,697.00 840.28,697.00 844.18,697.00 848.09,697.00 852.00,697.00 855.91,697.00 859.82,697.00 863.72,697.00 867.63,697.00 871.54,697.00 875.45,697.00 879.35,697.00 883.26,697.00 887.17,697.00 891.08,697.00 894.98,697.00 898.89,697.00 902.80,697.00 906.71,697.00 910.62,697.00 914.52,697.00 918.43,697.00 922.34,697.00 926.25,697.00 930.15,697.00 934.06,697.00 937.97,697.00 941.88,697.00 945.78,697.00 949.69,697.00 953.60,697.00 957.51,697.00 961.42,697.00 965.32,697.00 969.23,697.00 973.14,697.00 977.05,697.00 980.95,697.00 984.86,697.00 988.77,697.00 992.68,697.00 996.58,697.00 1000.49,697.00 1004.40,697.00 1008.31,697.00 1012.22,697.00 1016.12,697.00 1020.03,697.00 1023.94,697.00 1027.85,697.00 1031.75,697.00 1035.66,697.00 1039.57,697.00 1043.48,697.00 1047.38,697.00 1051.29,697.00 1055.20,697.00 1059.11,697.00 1063.02,697.00 1066.92,697.00 1070.83,697.00 1074.74,697.00 1078.65,697.00 1082.55,697.00 1086.46,697.00 1090.37,697.00 1094.28,697.00 1098.18,697.00 1102.09,697.00 1106.00,697.00 1109.91,697.00 1113.82,697.00 1117.72,697.00 1121.63,697.00 1125.54,697.00 1129.45,697.00 1133.35,697.00 1137.26,697.00 1141.17,697.00 1145.08,697.00 1148.98,697.00 1152.89,697.00 1156.80,697.00 1160.71,697.00 1164.62,697.00 1168.52,697.00 1172.43,697.00 1176.34,697.00 1180.25,697.00 1184.15,697.00 1188.06,697.00 1191.97,697.00 1195.88,697.00 1199.78,697.00 1203.69,697.00 1207.60,697.00 1211.51,697.00 1215.42,697.00 1219.32,697.00 1223.23,697.00 1227.14,697.00 1231.05,697.00 1234.95,697.00 1238.86,697.00 1242.77,697.00 1246.68,697.00 1250.58,697.00 1254.49,697.00 1258.40,697.00 1262.31,697.00 1266.22,697.00 1270.12,697.00 1274.03,697.00 1277.94,697.00 1281.85,697.00 1285.75,697.00 1289.66,697.00 1293.57,697.00 1297.48,697.00 1301.38,697.00 1305.29,697.00 1309.20,697.00 1313.11,697.00 1317.02,697.00 1320.92,697.00 1324.83,697.00 1328.74,697.00 1332.65,697.00 1336.55,697.00 1340.46,697.00 1344.37,697.00 1348.28,697.00 1352.18,697.00 1356.09,697.00 1360.00,697.00" />
<text class="axis" x="1368" y="66">|χ(R)|</text>
<text class="axis" x="1368" y="626">diff</text>
<text class="axis" x="725.0" y="836" text-anchor="middle">R (Å)</text>
<line x1="98" y1="70" x2="124" y2="70" stroke="#cc3f3f" stroke-width="1.8"/>
<text class="small" x="130" y="74">xraytsubaki total</text>
<line x1="268" y1="70" x2="294" y2="70" stroke="#2e6fdb" stroke-width="1.8" stroke-dasharray="5,4"/>
<text class="small" x="300" y="74">xraylarch total</text>
<line x1="428" y1="70" x2="454" y2="70" stroke="#2a9d5b" stroke-width="1.4"/>
<text class="small" x="460" y="74">diff</text>
<line x1="98" y1="90" x2="116" y2="90" stroke="#7b61ff" stroke-width="1.2"/>
<text class="small" x="122" y="94">feffcu01dat_00</text>
<line x1="98" y1="106" x2="116" y2="106" stroke="#f4a259" stroke-width="1.2"/>
<text class="small" x="122" y="110">feff0002dat_01</text>
</svg>