<?xml version="1.0" encoding="utf-8" standalone="no"?>
<!DOCTYPE svg PUBLIC "-//W3C//DTD SVG 1.1//EN"
  "http://www.w3.org/Graphics/SVG/1.1/DTD/svg11.dtd">
<svg xmlns:xlink="http://www.w3.org/1999/xlink" width="936pt" height="345.6pt" viewBox="0 0 936 345.6" xmlns="http://www.w3.org/2000/svg" version="1.1">
 <metadata>
  <rdf:RDF xmlns:dc="http://purl.org/dc/elements/1.1/" xmlns:cc="http://creativecommons.org/ns#" xmlns:rdf="http://www.w3.org/1999/02/22-rdf-syntax-ns#">
   <cc:Work>
    <dc:type rdf:resource="http://purl.org/dc/dcmitype/StillImage"/>
    <dc:date>2026-09-06T22:29:57.275261</dc:date>
    <dc:format>image/svg+xml</dc:format>
    <dc:creator>
     <cc:Agent>
      <dc:title>Matplotlib v3.11.1, https://matplotlib.org/</dc:title>
     </cc:Agent>
    </dc:creator>
   </cc:Work>
  </rdf:RDF>
 </metadata>
 <defs>
  <style type="text/css">*{stroke-linejoin: round; stroke-linecap: butt}</style>
 </defs>
 <g id="figure_1">
  <g id="patch_1">
   <path d="M 0 345.6
L 936 345.6
L 936 0
L 0 0
z
" style="fill: #ffffff"/>
  </g>
  <g id="axes_1">
   <g id="patch_2">
    <path d="M 92.228365 311.598979
L 463.32 311.598979
L 463.32 18.118365
L 92.228365 18.118365
z
" style="fill: #ffffff"/>
   </g>
   <g id="patch_3">
    <path d="M 92.228365 31.458393
L 92.339786 31.458393
L 92.339786 62.846694
L 92.228365 62.846694
z
" clip-path="url(#pa569c151dc)" style="fill: #999999"/>
   </g>
   <g id="patch_4">
    <path d="M 92.228365 70.693769
L 92.715893 70.693769
L 92.715893 102.08207
L 92.228365 102.08207
z
" clip-path="url(#pa569c151dc)" style="fill: #999999"/>
   </g>
   <g id="patch_5">
    <path d="M 92.228365 109.929145
L 92.717205 109.929145
L 92.717205 141.317446
L 92.228365 141.317446
z
" clip-path="url(#pa569c151dc)" style="fill: #999999"/>
   </g>
   <g id="patch_6">
    <path d="M 92.228365 149.164521
L 92.710369 149.164521
L 92.710369 180.552822
L 92.228365 180.552822
z
" clip-path="url(#pa569c151dc)" style="fill: #999999"/>
   </g>
   <g id="patch_7">
    <path d="M 92.228365 188.399898
L 92.778628 188.399898
L 92.778628 219.788199
L 92.228365 219.788199
z
" clip-path="url(#pa569c151dc)" style="fill: #999999"/>
   </g>
   <g id="patch_8">
    <path d="M 92.228365 227.635274
L 92.746967 227.635274
L 92.746967 259.023575
L 92.228365 259.023575
z
" clip-path="url(#pa569c151dc)" style="fill: #999999"/>
   </g>
   <g id="patch_9">
    <path d="M 92.228365 266.87065
L 92.721414 266.87065
L 92.721414 298.258951
L 92.228365 298.258951
z
" clip-path="url(#pa569c151dc)" style="fill: #999999"/>
   </g>
   <g id="patch_10">
    <path d="M 92.339786 31.458393
L 200.68971 31.458393
L 200.68971 62.846694
L 92.339786 62.846694
z
" clip-path="url(#pa569c151dc)" style="fill: #56b4e9"/>
   </g>
   <g id="patch_11">
    <path d="M 92.715893 70.693769
L 94.430975 70.693769
L 94.430975 102.08207
L 92.715893 102.08207
z
" clip-path="url(#pa569c151dc)" style="fill: #56b4e9"/>
   </g>
   <g id="patch_12">
    <path d="M 92.717205 109.929145
L 94.426377 109.929145
L 94.426377 141.317446
L 92.717205 141.317446
z
" clip-path="url(#pa569c151dc)" style="fill: #56b4e9"/>
   </g>
   <g id="patch_13">
    <path d="M 92.710369 149.164521
L 94.396923 149.164521
L 94.396923 180.552822
L 92.710369 180.552822
z
" clip-path="url(#pa569c151dc)" style="fill: #56b4e9"/>
   </g>
   <g id="patch_14">
    <path d="M 92.778628 188.399898
L 94.679125 188.399898
L 94.679125 219.788199
L 92.778628 219.788199
z
" clip-path="url(#pa569c151dc)" style="fill: #56b4e9"/>
   </g>
   <g id="patch_15">
    <path d="M 92.746967 227.635274
L 94.495935 227.635274
L 94.495935 259.023575
L 92.746967 259.023575
z
" clip-path="url(#pa569c151dc)" style="fill: #56b4e9"/>
   </g>
   <g id="patch_16">
    <path d="M 92.721414 266.87065
L 94.46005 266.87065
L 94.46005 298.258951
L 92.721414 298.258951
z
" clip-path="url(#pa569c151dc)" style="fill: #56b4e9"/>
   </g>
   <g id="patch_17">
    <path d="M 200.68971 31.458393
L 435.587768 31.458393
L 435.587768 62.846694
L 200.68971 62.846694
z
" clip-path="url(#pa569c151dc)" style="fill: #d55e00"/>
   </g>
   <g id="patch_18">
    <path d="M 94.430975 70.693769
L 101.884846 70.693769
L 101.884846 102.08207
L 94.430975 102.08207
z
" clip-path="url(#pa569c151dc)" style="fill: #d55e00"/>
   </g>
   <g id="patch_19">
    <path d="M 94.426377 109.929145
L 101.896356 109.929145
L 101.896356 141.317446
L 94.426377 141.317446
z
" clip-path="url(#pa569c151dc)" style="fill: #d55e00"/>
   </g>
   <g id="patch_20">
    <path d="M 94.396923 149.164521
L 108.622497 149.164521
L 108.622497 180.552822
L 94.396923 180.552822
z
" clip-path="url(#pa569c151dc)" style="fill: #d55e00"/>
   </g>
   <g id="patch_21">
    <path d="M 94.679125 188.399898
L 108.468645 188.399898
L 108.468645 219.788199
L 94.679125 219.788199
z
" clip-path="url(#pa569c151dc)" style="fill: #d55e00"/>
   </g>
   <g id="patch_22">
    <path d="M 94.495935 227.635274
L 259.097231 227.635274
L 259.097231 259.023575
L 94.495935 259.023575
z
" clip-path="url(#pa569c151dc)" style="fill: #d55e00"/>
   </g>
   <g id="patch_23">
    <path d="M 94.46005 266.87065
L 160.094652 266.87065
L 160.094652 298.258951
L 94.46005 298.258951
z
" clip-path="url(#pa569c151dc)" style="fill: #d55e00"/>
   </g>
   <g id="patch_24">
    <path d="M 435.587768 31.458393
L 445.64897 31.458393
L 445.64897 62.846694
L 435.587768 62.846694
z
" clip-path="url(#pa569c151dc)" style="fill: #009e73"/>
   </g>
   <g id="patch_25">
    <path d="M 101.884846 70.693769
L 103.388083 70.693769
L 103.388083 102.08207
L 101.884846 102.08207
z
" clip-path="url(#pa569c151dc)" style="fill: #009e73"/>
   </g>
   <g id="patch_26">
    <path d="M 101.896356 109.929145
L 103.400215 109.929145
L 103.400215 141.317446
L 101.896356 141.317446
z
" clip-path="url(#pa569c151dc)" style="fill: #009e73"/>
   </g>
   <g id="patch_27">
    <path d="M 108.622497 149.164521
L 110.095963 149.164521
L 110.095963 180.552822
L 108.622497 180.552822
z
" clip-path="url(#pa569c151dc)" style="fill: #009e73"/>
   </g>
   <g id="patch_28">
    <path d="M 108.468645 188.399898
L 110.121611 188.399898
L 110.121611 219.788199
L 108.468645 219.788199
z
" clip-path="url(#pa569c151dc)" style="fill: #009e73"/>
   </g>
   <g id="patch_29">
    <path d="M 259.097231 227.635274
L 260.616848 227.635274
L 260.616848 259.023575
L 259.097231 259.023575
z
" clip-path="url(#pa569c151dc)" style="fill: #009e73"/>
   </g>
   <g id="patch_30">
    <path d="M 160.094652 266.87065
L 161.612277 266.87065
L 161.612277 298.258951
L 160.094652 298.258951
z
" clip-path="url(#pa569c151dc)" style="fill: #009e73"/>
   </g>
   <g id="matplotlib.axis_1">
    <g id="xtick_1">
     <g id="line2d_1">
      <path d="M 92.228365 311.598979
L 92.228365 18.118365
" clip-path="url(#pa569c151dc)" style="fill: none; stroke: #b0b0b0; stroke-opacity: 0.2; stroke-width: 0.8; stroke-linecap: square"/>
     </g>
     <g id="line2d_2">
      <defs>
       <path id="mb73e8144b0" d="M 0 0
L 0 3.5
" style="stroke: #000000; stroke-width: 0.8"/>
      </defs>
      <g>
       <use xlink:href="#mb73e8144b0" x="92.228365" y="311.598979" style="stroke: #000000; stroke-width: 0.8"/>
      </g>
     </g>
     <g id="text_1">
      <!-- 0.0 -->
      <g transform="translate(84.276803 326.196635) scale(0.1 -0.1)">
       <defs>
        <path id="DejaVuSans-13" d="M 2034 4250
Q 1547 4250 1301 3770
Q 1056 3291 1056 2328
Q 1056 1369 1301 889
Q 1547 409 2034 409
Q 2525 409 2770 889
Q 3016 1369 3016 2328
Q 3016 3291 2770 3770
Q 2525 4250 2034 4250
z
M 2034 4750
Q 2819 4750 3233 4129
Q 3647 3509 3647 2328
Q 3647 1150 3233 529
Q 2819 -91 2034 -91
Q 1250 -91 836 529
Q 422 1150 422 2328
Q 422 3509 836 4129
Q 1250 4750 2034 4750
z
" transform="scale(0.015625)"/>
        <path id="DejaVuSans-11" d="M 684 794
L 1344 794
L 1344 0
L 684 0
L 684 794
z
" transform="scale(0.015625)"/>
       </defs>
       <use xlink:href="#DejaVuSans-13"/>
       <use xlink:href="#DejaVuSans-11" transform="translate(63.625 0)"/>
       <use xlink:href="#DejaVuSans-13" transform="translate(95.40625 0)"/>
      </g>
     </g>
    </g>
    <g id="xtick_2">
     <g id="line2d_3">
      <path d="M 138.873938 311.598979
L 138.873938 18.118365
" clip-path="url(#pa569c151dc)" style="fill: none; stroke: #b0b0b0; stroke-opacity: 0.2; stroke-width: 0.8; stroke-linecap: square"/>
     </g>
     <g id="line2d_4">
      <g>
       <use xlink:href="#mb73e8144b0" x="138.873938" y="311.598979" style="stroke: #000000; stroke-width: 0.8"/>
      </g>
     </g>
     <g id="text_2">
      <!-- 0.5 -->
      <g transform="translate(130.922376 326.196635) scale(0.1 -0.1)">
       <defs>
        <path id="DejaVuSans-18" d="M 691 4666
L 3169 4666
L 3169 4134
L 1269 4134
L 1269 2991
Q 1406 3038 1543 3061
Q 1681 3084 1819 3084
Q 2600 3084 3056 2656
Q 3513 2228 3513 1497
Q 3513 744 3044 326
Q 2575 -91 1722 -91
Q 1428 -91 1123 -41
Q 819 9 494 109
L 494 744
Q 775 591 1075 516
Q 1375 441 1709 441
Q 2250 441 2565 725
Q 2881 1009 2881 1497
Q 2881 1984 2565 2268
Q 2250 2553 1709 2553
Q 1456 2553 1204 2497
Q 953 2441 691 2322
L 691 4666
z
" transform="scale(0.015625)"/>
       </defs>
       <use xlink:href="#DejaVuSans-13"/>
       <use xlink:href="#DejaVuSans-11" transform="translate(63.625 0)"/>
       <use xlink:href="#DejaVuSans-18" transform="translate(95.40625 0)"/>
      </g>
     </g>
    </g>
    <g id="xtick_3">
     <g id="line2d_5">
      <path d="M 185.519512 311.598979
L 185.519512 18.118365
" clip-path="url(#pa569c151dc)" style="fill: none; stroke: #b0b0b0; stroke-opacity: 0.2; stroke-width: 0.8; stroke-linecap: square"/>
     </g>
     <g id="line2d_6">
      <g>
       <use xlink:href="#mb73e8144b0" x="185.519512" y="311.598979" style="stroke: #000000; stroke-width: 0.8"/>
      </g>
     </g>
     <g id="text_3">
      <!-- 1.0 -->
      <g transform="translate(177.567949 326.196635) scale(0.1 -0.1)">
       <defs>
        <path id="DejaVuSans-14" d="M 794 531
L 1825 531
L 1825 4091
L 703 3866
L 703 4441
L 1819 4666
L 2450 4666
L 2450 531
L 3481 531
L 3481 0
L 794 0
L 794 531
z
" transform="scale(0.015625)"/>
       </defs>
       <use xlink:href="#DejaVuSans-14"/>
       <use xlink:href="#DejaVuSans-11" transform="translate(63.625 0)"/>
       <use xlink:href="#DejaVuSans-13" transform="translate(95.40625 0)"/>
      </g>
     </g>
    </g>
    <g id="xtick_4">
     <g id="line2d_7">
      <path d="M 232.165085 311.598979
L 232.165085 18.118365
" clip-path="url(#pa569c151dc)" style="fill: none; stroke: #b0b0b0; stroke-opacity: 0.2; stroke-width: 0.8; stroke-linecap: square"/>
     </g>
     <g id="line2d_8">
      <g>
       <use xlink:href="#mb73e8144b0" x="232.165085" y="311.598979" style="stroke: #000000; stroke-width: 0.8"/>
      </g>
     </g>
     <g id="text_4">
      <!-- 1.5 -->
      <g transform="translate(224.213523 326.196635) scale(0.1 -0.1)">
       <use xlink:href="#DejaVuSans-14"/>
       <use xlink:href="#DejaVuSans-11" transform="translate(63.625 0)"/>
       <use xlink:href="#DejaVuSans-18" transform="translate(95.40625 0)"/>
      </g>
     </g>
    </g>
    <g id="xtick_5">
     <g id="line2d_9">
      <path d="M 278.810659 311.598979
L 278.810659 18.118365
" clip-path="url(#pa569c151dc)" style="fill: none; stroke: #b0b0b0; stroke-opacity: 0.2; stroke-width: 0.8; stroke-linecap: square"/>
     </g>
     <g id="line2d_10">
      <g>
       <use xlink:href="#mb73e8144b0" x="278.810659" y="311.598979" style="stroke: #000000; stroke-width: 0.8"/>
      </g>
     </g>
     <g id="text_5">
      <!-- 2.0 -->
      <g transform="translate(270.859096 326.196635) scale(0.1 -0.1)">
       <defs>
        <path id="DejaVuSans-15" d="M 1228 531
L 3431 531
L 3431 0
L 469 0
L 469 531
Q 828 903 1448 1529
Q 2069 2156 2228 2338
Q 2531 2678 2651 2914
Q 2772 3150 2772 3378
Q 2772 3750 2511 3984
Q 2250 4219 1831 4219
Q 1534 4219 1204 4116
Q 875 4013 500 3803
L 500 4441
Q 881 4594 1212 4672
Q 1544 4750 1819 4750
Q 2544 4750 2975 4387
Q 3406 4025 3406 3419
Q 3406 3131 3298 2873
Q 3191 2616 2906 2266
Q 2828 2175 2409 1742
Q 1991 1309 1228 531
z
" transform="scale(0.015625)"/>
       </defs>
       <use xlink:href="#DejaVuSans-15"/>
       <use xlink:href="#DejaVuSans-11" transform="translate(63.625 0)"/>
       <use xlink:href="#DejaVuSans-13" transform="translate(95.40625 0)"/>
      </g>
     </g>
    </g>
    <g id="xtick_6">
     <g id="line2d_11">
      <path d="M 325.456232 311.598979
L 325.456232 18.118365
" clip-path="url(#pa569c151dc)" style="fill: none; stroke: #b0b0b0; stroke-opacity: 0.2; stroke-width: 0.8; stroke-linecap: square"/>
     </g>
     <g id="line2d_12">
      <g>
       <use xlink:href="#mb73e8144b0" x="325.456232" y="311.598979" style="stroke: #000000; stroke-width: 0.8"/>
      </g>
     </g>
     <g id="text_6">
      <!-- 2.5 -->
      <g transform="translate(317.50467 326.196635) scale(0.1 -0.1)">
       <use xlink:href="#DejaVuSans-15"/>
       <use xlink:href="#DejaVuSans-11" transform="translate(63.625 0)"/>
       <use xlink:href="#DejaVuSans-18" transform="translate(95.40625 0)"/>
      </g>
     </g>
    </g>
    <g id="xtick_7">
     <g id="line2d_13">
      <path d="M 372.101806 311.598979
L 372.101806 18.118365
" clip-path="url(#pa569c151dc)" style="fill: none; stroke: #b0b0b0; stroke-opacity: 0.2; stroke-width: 0.8; stroke-linecap: square"/>
     </g>
     <g id="line2d_14">
      <g>
       <use xlink:href="#mb73e8144b0" x="372.101806" y="311.598979" style="stroke: #000000; stroke-width: 0.8"/>
      </g>
     </g>
     <g id="text_7">
      <!-- 3.0 -->
      <g transform="translate(364.150243 326.196635) scale(0.1 -0.1)">
       <defs>
        <path id="DejaVuSans-16" d="M 2597 2516
Q 3050 2419 3304 2112
Q 3559 1806 3559 1356
Q 3559 666 3084 287
Q 2609 -91 1734 -91
Q 1441 -91 1130 -33
Q 819 25 488 141
L 488 750
Q 750 597 1062 519
Q 1375 441 1716 441
Q 2309 441 2620 675
Q 2931 909 2931 1356
Q 2931 1769 2642 2001
Q 2353 2234 1838 2234
L 1294 2234
L 1294 2753
L 1863 2753
Q 2328 2753 2575 2939
Q 2822 3125 2822 3475
Q 2822 3834 2567 4026
Q 2313 4219 1838 4219
Q 1578 4219 1281 4162
Q 984 4106 628 3988
L 628 4550
Q 988 4650 1302 4700
Q 1616 4750 1894 4750
Q 2613 4750 3031 4423
Q 3450 4097 3450 3541
Q 3450 3153 3228 2886
Q 3006 2619 2597 2516
z
" transform="scale(0.015625)"/>
       </defs>
       <use xlink:href="#DejaVuSans-16"/>
       <use xlink:href="#DejaVuSans-11" transform="translate(63.625 0)"/>
       <use xlink:href="#DejaVuSans-13" transform="translate(95.40625 0)"/>
      </g>
     </g>
    </g>
    <g id="xtick_8">
     <g id="line2d_15">
      <path d="M 418.747379 311.598979
L 418.747379 18.118365
" clip-path="url(#pa569c151dc)" style="fill: none; stroke: #b0b0b0; stroke-opacity: 0.2; stroke-width: 0.8; stroke-linecap: square"/>
     </g>
     <g id="line2d_16">
      <g>
       <use xlink:href="#mb73e8144b0" x="418.747379" y="311.598979" style="stroke: #000000; stroke-width: 0.8"/>
      </g>
     </g>
     <g id="text_8">
      <!-- 3.5 -->
      <g transform="translate(410.795817 326.196635) scale(0.1 -0.1)">
       <use xlink:href="#DejaVuSans-16"/>
       <use xlink:href="#DejaVuSans-11" transform="translate(63.625 0)"/>
       <use xlink:href="#DejaVuSans-18" transform="translate(95.40625 0)"/>
      </g>
     </g>
    </g>
    <g id="text_9">
     <!-- Milliseconds per fresh spectrum -->
     <g transform="translate(198.178089 340.197416) scale(0.1 -0.1)">
      <defs>
       <path id="DejaVuSans-30" d="M 628 4666
L 1569 4666
L 2759 1491
L 3956 4666
L 4897 4666
L 4897 0
L 4281 0
L 4281 4097
L 3078 897
L 2444 897
L 1241 4097
L 1241 0
L 628 0
L 628 4666
z
" transform="scale(0.015625)"/>
       <path id="DejaVuSans-4c" d="M 603 3500
L 1178 3500
L 1178 0
L 603 0
L 603 3500
z
M 603 4863
L 1178 4863
L 1178 4134
L 603 4134
L 603 4863
z
" transform="scale(0.015625)"/>
       <path id="DejaVuSans-4f" d="M 603 4863
L 1178 4863
L 1178 0
L 603 0
L 603 4863
z
" transform="scale(0.015625)"/>
       <path id="DejaVuSans-56" d="M 2834 3397
L 2834 2853
Q 2591 2978 2328 3040
Q 2066 3103 1784 3103
Q 1356 3103 1142 2972
Q 928 2841 928 2578
Q 928 2378 1081 2264
Q 1234 2150 1697 2047
L 1894 2003
Q 2506 1872 2764 1633
Q 3022 1394 3022 966
Q 3022 478 2636 193
Q 2250 -91 1575 -91
Q 1294 -91 989 -36
Q 684 19 347 128
L 347 722
Q 666 556 975 473
Q 1284 391 1588 391
Q 1994 391 2212 530
Q 2431 669 2431 922
Q 2431 1156 2273 1281
Q 2116 1406 1581 1522
L 1381 1569
Q 847 1681 609 1914
Q 372 2147 372 2553
Q 372 3047 722 3315
Q 1072 3584 1716 3584
Q 2034 3584 2315 3537
Q 2597 3491 2834 3397
z
" transform="scale(0.015625)"/>
       <path id="DejaVuSans-48" d="M 3597 1894
L 3597 1613
L 953 1613
Q 991 1019 1311 708
Q 1631 397 2203 397
Q 2534 397 2845 478
Q 3156 559 3463 722
L 3463 178
Q 3153 47 2828 -22
Q 2503 -91 2169 -91
Q 1331 -91 842 396
Q 353 884 353 1716
Q 353 2575 817 3079
Q 1281 3584 2069 3584
Q 2775 3584 3186 3129
Q 3597 2675 3597 1894
z
M 3022 2063
Q 3016 2534 2758 2815
Q 2500 3097 2075 3097
Q 1594 3097 1305 2825
Q 1016 2553 972 2059
L 3022 2063
z
" transform="scale(0.015625)"/>
       <path id="DejaVuSans-46" d="M 3122 3366
L 3122 2828
Q 2878 2963 2633 3030
Q 2388 3097 2138 3097
Q 1578 3097 1268 2742
Q 959 2388 959 1747
Q 959 1106 1268 751
Q 1578 397 2138 397
Q 2388 397 2633 464
Q 2878 531 3122 666
L 3122 134
Q 2881 22 2623 -34
Q 2366 -91 2075 -91
Q 1284 -91 818 406
Q 353 903 353 1747
Q 353 2603 823 3093
Q 1294 3584 2113 3584
Q 2378 3584 2631 3529
Q 2884 3475 3122 3366
z
" transform="scale(0.015625)"/>
       <path id="DejaVuSans-52" d="M 1959 3097
Q 1497 3097 1228 2736
Q 959 2375 959 1747
Q 959 1119 1226 758
Q 1494 397 1959 397
Q 2419 397 2687 759
Q 2956 1122 2956 1747
Q 2956 2369 2687 2733
Q 2419 3097 1959 3097
z
M 1959 3584
Q 2709 3584 3137 3096
Q 3566 2609 3566 1747
Q 3566 888 3137 398
Q 2709 -91 1959 -91
Q 1206 -91 779 398
Q 353 888 353 1747
Q 353 2609 779 3096
Q 1206 3584 1959 3584
z
" transform="scale(0.015625)"/>
       <path id="DejaVuSans-51" d="M 3513 2113
L 3513 0
L 2938 0
L 2938 2094
Q 2938 2591 2744 2837
Q 2550 3084 2163 3084
Q 1697 3084 1428 2787
Q 1159 2491 1159 1978
L 1159 0
L 581 0
L 581 3500
L 1159 3500
L 1159 2956
Q 1366 3272 1645 3428
Q 1925 3584 2291 3584
Q 2894 3584 3203 3211
Q 3513 2838 3513 2113
z
" transform="scale(0.015625)"/>
       <path id="DejaVuSans-47" d="M 2906 2969
L 2906 4863
L 3481 4863
L 3481 0
L 2906 0
L 2906 525
Q 2725 213 2448 61
Q 2172 -91 1784 -91
Q 1150 -91 751 415
Q 353 922 353 1747
Q 353 2572 751 3078
Q 1150 3584 1784 3584
Q 2172 3584 2448 3432
Q 2725 3281 2906 2969
z
M 947 1747
Q 947 1113 1208 752
Q 1469 391 1925 391
Q 2381 391 2643 752
Q 2906 1113 2906 1747
Q 2906 2381 2643 2742
Q 2381 3103 1925 3103
Q 1469 3103 1208 2742
Q 947 2381 947 1747
z
" transform="scale(0.015625)"/>
       <path id="DejaVuSans-3" transform="scale(0.015625)"/>
       <path id="DejaVuSans-53" d="M 1159 525
L 1159 -1331
L 581 -1331
L 581 3500
L 1159 3500
L 1159 2969
Q 1341 3281 1617 3432
Q 1894 3584 2278 3584
Q 2916 3584 3314 3078
Q 3713 2572 3713 1747
Q 3713 922 3314 415
Q 2916 -91 2278 -91
Q 1894 -91 1617 61
Q 1341 213 1159 525
z
M 3116 1747
Q 3116 2381 2855 2742
Q 2594 3103 2138 3103
Q 1681 3103 1420 2742
Q 1159 2381 1159 1747
Q 1159 1113 1420 752
Q 1681 391 2138 391
Q 2594 391 2855 752
Q 3116 1113 3116 1747
z
" transform="scale(0.015625)"/>
       <path id="DejaVuSans-55" d="M 2631 2963
Q 2534 3019 2420 3045
Q 2306 3072 2169 3072
Q 1681 3072 1420 2755
Q 1159 2438 1159 1844
L 1159 0
L 581 0
L 581 3500
L 1159 3500
L 1159 2956
Q 1341 3275 1631 3429
Q 1922 3584 2338 3584
Q 2397 3584 2469 3576
Q 2541 3569 2628 3553
L 2631 2963
z
" transform="scale(0.015625)"/>
       <path id="DejaVuSans-49" d="M 2375 4863
L 2375 4384
L 1825 4384
Q 1516 4384 1395 4259
Q 1275 4134 1275 3809
L 1275 3500
L 2222 3500
L 2222 3053
L 1275 3053
L 1275 0
L 697 0
L 697 3053
L 147 3053
L 147 3500
L 697 3500
L 697 3744
Q 697 4328 969 4595
Q 1241 4863 1831 4863
L 2375 4863
z
" transform="scale(0.015625)"/>
       <path id="DejaVuSans-4b" d="M 3513 2113
L 3513 0
L 2938 0
L 2938 2094
Q 2938 2591 2744 2837
Q 2550 3084 2163 3084
Q 1697 3084 1428 2787
Q 1159 2491 1159 1978
L 1159 0
L 581 0
L 581 4863
L 1159 4863
L 1159 2956
Q 1366 3272 1645 3428
Q 1925 3584 2291 3584
Q 2894 3584 3203 3211
Q 3513 2838 3513 2113
z
" transform="scale(0.015625)"/>
       <path id="DejaVuSans-57" d="M 1172 4494
L 1172 3500
L 2356 3500
L 2356 3053
L 1172 3053
L 1172 1153
Q 1172 725 1289 603
Q 1406 481 1766 481
L 2356 481
L 2356 0
L 1766 0
Q 1100 0 847 248
Q 594 497 594 1153
L 594 3053
L 172 3053
L 172 3500
L 594 3500
L 594 4494
L 1172 4494
z
" transform="scale(0.015625)"/>
       <path id="DejaVuSans-58" d="M 544 1381
L 544 3500
L 1119 3500
L 1119 1403
Q 1119 906 1312 657
Q 1506 409 1894 409
Q 2359 409 2629 706
Q 2900 1003 2900 1516
L 2900 3500
L 3475 3500
L 3475 0
L 2900 0
L 2900 538
Q 2691 219 2414 64
Q 2138 -91 1772 -91
Q 1169 -91 856 284
Q 544 659 544 1381
z
M 1991 3584
L 1991 3584
z
" transform="scale(0.015625)"/>
       <path id="DejaVuSans-50" d="M 3328 2828
Q 3544 3216 3844 3400
Q 4144 3584 4550 3584
Q 5097 3584 5394 3201
Q 5691 2819 5691 2113
L 5691 0
L 5113 0
L 5113 2094
Q 5113 2597 4934 2840
Q 4756 3084 4391 3084
Q 3944 3084 3684 2787
Q 3425 2491 3425 1978
L 3425 0
L 2847 0
L 2847 2094
Q 2847 2600 2669 2842
Q 2491 3084 2119 3084
Q 1678 3084 1418 2786
Q 1159 2488 1159 1978
L 1159 0
L 581 0
L 581 3500
L 1159 3500
L 1159 2956
Q 1356 3278 1631 3431
Q 1906 3584 2284 3584
Q 2666 3584 2933 3390
Q 3200 3197 3328 2828
z
" transform="scale(0.015625)"/>
      </defs>
      <use xlink:href="#DejaVuSans-30"/>
      <use xlink:href="#DejaVuSans-4c" transform="translate(86.28125 0)"/>
      <use xlink:href="#DejaVuSans-4f" transform="translate(114.0625 0)"/>
      <use xlink:href="#DejaVuSans-4f" transform="translate(141.84375 0)"/>
      <use xlink:href="#DejaVuSans-4c" transform="translate(169.625 0)"/>
      <use xlink:href="#DejaVuSans-56" transform="translate(197.40625 0)"/>
      <use xlink:href="#DejaVuSans-48" transform="translate(249.5 0)"/>
      <use xlink:href="#DejaVuSans-46" transform="translate(311.03125 0)"/>
      <use xlink:href="#DejaVuSans-52" transform="translate(366.015625 0)"/>
      <use xlink:href="#DejaVuSans-51" transform="translate(427.203125 0)"/>
      <use xlink:href="#DejaVuSans-47" transform="translate(490.578125 0)"/>
      <use xlink:href="#DejaVuSans-56" transform="translate(554.0625 0)"/>
      <use xlink:href="#DejaVuSans-3" transform="translate(606.15625 0)"/>
      <use xlink:href="#DejaVuSans-53" transform="translate(637.9375 0)"/>
      <use xlink:href="#DejaVuSans-48" transform="translate(701.421875 0)"/>
      <use xlink:href="#DejaVuSans-55" transform="translate(762.953125 0)"/>
      <use xlink:href="#DejaVuSans-3" transform="translate(804.0625 0)"/>
      <use xlink:href="#DejaVuSans-49" transform="translate(835.84375 0)"/>
      <use xlink:href="#DejaVuSans-55" transform="translate(871.046875 0)"/>
      <use xlink:href="#DejaVuSans-48" transform="translate(909.953125 0)"/>
      <use xlink:href="#DejaVuSans-56" transform="translate(971.484375 0)"/>
      <use xlink:href="#DejaVuSans-4b" transform="translate(1023.578125 0)"/>
      <use xlink:href="#DejaVuSans-3" transform="translate(1086.953125 0)"/>
      <use xlink:href="#DejaVuSans-56" transform="translate(1118.734375 0)"/>
      <use xlink:href="#DejaVuSans-53" transform="translate(1170.828125 0)"/>
      <use xlink:href="#DejaVuSans-48" transform="translate(1234.3125 0)"/>
      <use xlink:href="#DejaVuSans-46" transform="translate(1295.84375 0)"/>
      <use xlink:href="#DejaVuSans-57" transform="translate(1350.828125 0)"/>
      <use xlink:href="#DejaVuSans-55" transform="translate(1390.03125 0)"/>
      <use xlink:href="#DejaVuSans-58" transform="translate(1431.140625 0)"/>
      <use xlink:href="#DejaVuSans-50" transform="translate(1494.515625 0)"/>
     </g>
    </g>
   </g>
   <g id="matplotlib.axis_2">
    <g id="ytick_1">
     <g id="line2d_17">
      <defs>
       <path id="m64546ec3c1" d="M 0 0
L -3.5 0
" style="stroke: #000000; stroke-width: 0.8"/>
      </defs>
      <g>
       <use xlink:href="#m64546ec3c1" x="92.228365" y="47.152543" style="stroke: #000000; stroke-width: 0.8"/>
      </g>
     </g>
     <g id="text_10">
      <!-- larch -->
      <g transform="translate(60.595552 50.951762) scale(0.1 -0.1)">
       <defs>
        <path id="DejaVuSans-44" d="M 2194 1759
Q 1497 1759 1228 1600
Q 959 1441 959 1056
Q 959 750 1161 570
Q 1363 391 1709 391
Q 2188 391 2477 730
Q 2766 1069 2766 1631
L 2766 1759
L 2194 1759
z
M 3341 1997
L 3341 0
L 2766 0
L 2766 531
Q 2569 213 2275 61
Q 1981 -91 1556 -91
Q 1019 -91 701 211
Q 384 513 384 1019
Q 384 1609 779 1909
Q 1175 2209 1959 2209
L 2766 2209
L 2766 2266
Q 2766 2663 2505 2880
Q 2244 3097 1772 3097
Q 1472 3097 1187 3025
Q 903 2953 641 2809
L 641 3341
Q 956 3463 1253 3523
Q 1550 3584 1831 3584
Q 2591 3584 2966 3190
Q 3341 2797 3341 1997
z
" transform="scale(0.015625)"/>
       </defs>
       <use xlink:href="#DejaVuSans-4f"/>
       <use xlink:href="#DejaVuSans-44" transform="translate(27.78125 0)"/>
       <use xlink:href="#DejaVuSans-55" transform="translate(89.0625 0)"/>
       <use xlink:href="#DejaVuSans-46" transform="translate(127.96875 0)"/>
       <use xlink:href="#DejaVuSans-4b" transform="translate(182.953125 0)"/>
      </g>
     </g>
    </g>
    <g id="ytick_2">
     <g id="line2d_18">
      <g>
       <use xlink:href="#m64546ec3c1" x="92.228365" y="86.38792" style="stroke: #000000; stroke-width: 0.8"/>
      </g>
     </g>
     <g id="text_11">
      <!-- shipped_default -->
      <g transform="translate(5.51899 90.187138) scale(0.1 -0.1)">
       <defs>
        <path id="DejaVuSans-42" d="M 3263 -1063
L 3263 -1509
L -63 -1509
L -63 -1063
L 3263 -1063
z
" transform="scale(0.015625)"/>
       </defs>
       <use xlink:href="#DejaVuSans-56"/>
       <use xlink:href="#DejaVuSans-4b" transform="translate(52.09375 0)"/>
       <use xlink:href="#DejaVuSans-4c" transform="translate(115.46875 0)"/>
       <use xlink:href="#DejaVuSans-53" transform="translate(143.25 0)"/>
       <use xlink:href="#DejaVuSans-53" transform="translate(206.734375 0)"/>
       <use xlink:href="#DejaVuSans-48" transform="translate(270.21875 0)"/>
       <use xlink:href="#DejaVuSans-47" transform="translate(331.75 0)"/>
       <use xlink:href="#DejaVuSans-42" transform="translate(395.234375 0)"/>
       <use xlink:href="#DejaVuSans-47" transform="translate(445.234375 0)"/>
       <use xlink:href="#DejaVuSans-48" transform="translate(508.71875 0)"/>
       <use xlink:href="#DejaVuSans-49" transform="translate(570.25 0)"/>
       <use xlink:href="#DejaVuSans-44" transform="translate(605.453125 0)"/>
       <use xlink:href="#DejaVuSans-58" transform="translate(666.734375 0)"/>
       <use xlink:href="#DejaVuSans-4f" transform="translate(730.109375 0)"/>
       <use xlink:href="#DejaVuSans-57" transform="translate(757.890625 0)"/>
      </g>
     </g>
    </g>
    <g id="ytick_3">
     <g id="line2d_19">
      <g>
       <use xlink:href="#m64546ec3c1" x="92.228365" y="125.623296" style="stroke: #000000; stroke-width: 0.8"/>
      </g>
     </g>
     <g id="text_12">
      <!-- direct_cached -->
      <g transform="translate(15.67524 129.422514) scale(0.1 -0.1)">
       <use xlink:href="#DejaVuSans-47"/>
       <use xlink:href="#DejaVuSans-4c" transform="translate(63.484375 0)"/>
       <use xlink:href="#DejaVuSans-55" transform="translate(91.265625 0)"/>
       <use xlink:href="#DejaVuSans-48" transform="translate(130.171875 0)"/>
       <use xlink:href="#DejaVuSans-46" transform="translate(191.703125 0)"/>
       <use xlink:href="#DejaVuSans-57" transform="translate(246.6875 0)"/>
       <use xlink:href="#DejaVuSans-42" transform="translate(285.890625 0)"/>
       <use xlink:href="#DejaVuSans-46" transform="translate(335.890625 0)"/>
       <use xlink:href="#DejaVuSans-44" transform="translate(390.875 0)"/>
       <use xlink:href="#DejaVuSans-46" transform="translate(452.15625 0)"/>
       <use xlink:href="#DejaVuSans-4b" transform="translate(507.140625 0)"/>
       <use xlink:href="#DejaVuSans-48" transform="translate(570.515625 0)"/>
       <use xlink:href="#DejaVuSans-47" transform="translate(632.046875 0)"/>
      </g>
     </g>
    </g>
    <g id="ytick_4">
     <g id="line2d_20">
      <g>
       <use xlink:href="#m64546ec3c1" x="92.228365" y="164.858672" style="stroke: #000000; stroke-width: 0.8"/>
      </g>
     </g>
     <g id="text_13">
      <!-- direct_uncached -->
      <g transform="translate(3.00024 168.657891) scale(0.1 -0.1)">
       <use xlink:href="#DejaVuSans-47"/>
       <use xlink:href="#DejaVuSans-4c" transform="translate(63.484375 0)"/>
       <use xlink:href="#DejaVuSans-55" transform="translate(91.265625 0)"/>
       <use xlink:href="#DejaVuSans-48" transform="translate(130.171875 0)"/>
       <use xlink:href="#DejaVuSans-46" transform="translate(191.703125 0)"/>
       <use xlink:href="#DejaVuSans-57" transform="translate(246.6875 0)"/>
       <use xlink:href="#DejaVuSans-42" transform="translate(285.890625 0)"/>
       <use xlink:href="#DejaVuSans-58" transform="translate(335.890625 0)"/>
       <use xlink:href="#DejaVuSans-51" transform="translate(399.265625 0)"/>
       <use xlink:href="#DejaVuSans-46" transform="translate(462.640625 0)"/>
       <use xlink:href="#DejaVuSans-44" transform="translate(517.625 0)"/>
       <use xlink:href="#DejaVuSans-46" transform="translate(578.90625 0)"/>
       <use xlink:href="#DejaVuSans-4b" transform="translate(633.890625 0)"/>
       <use xlink:href="#DejaVuSans-48" transform="translate(697.265625 0)"/>
       <use xlink:href="#DejaVuSans-47" transform="translate(758.796875 0)"/>
      </g>
     </g>
    </g>
    <g id="ytick_5">
     <g id="line2d_21">
      <g>
       <use xlink:href="#m64546ec3c1" x="92.228365" y="204.094048" style="stroke: #000000; stroke-width: 0.8"/>
      </g>
     </g>
     <g id="text_14">
      <!-- direct_two_pass -->
      <g transform="translate(5.526802 207.893267) scale(0.1 -0.1)">
       <defs>
        <path id="DejaVuSans-5a" d="M 269 3500
L 844 3500
L 1563 769
L 2278 3500
L 2956 3500
L 3675 769
L 4391 3500
L 4966 3500
L 4050 0
L 3372 0
L 2619 2869
L 1863 0
L 1184 0
L 269 3500
z
" transform="scale(0.015625)"/>
       </defs>
       <use xlink:href="#DejaVuSans-47"/>
       <use xlink:href="#DejaVuSans-4c" transform="translate(63.484375 0)"/>
       <use xlink:href="#DejaVuSans-55" transform="translate(91.265625 0)"/>
       <use xlink:href="#DejaVuSans-48" transform="translate(130.171875 0)"/>
       <use xlink:href="#DejaVuSans-46" transform="translate(191.703125 0)"/>
       <use xlink:href="#DejaVuSans-57" transform="translate(246.6875 0)"/>
       <use xlink:href="#DejaVuSans-42" transform="translate(285.890625 0)"/>
       <use xlink:href="#DejaVuSans-57" transform="translate(335.890625 0)"/>
       <use xlink:href="#DejaVuSans-5a" transform="translate(375.09375 0)"/>
       <use xlink:href="#DejaVuSans-52" transform="translate(456.875 0)"/>
       <use xlink:href="#DejaVuSans-42" transform="translate(518.0625 0)"/>
       <use xlink:href="#DejaVuSans-53" transform="translate(568.0625 0)"/>
       <use xlink:href="#DejaVuSans-44" transform="translate(631.546875 0)"/>
       <use xlink:href="#DejaVuSans-56" transform="translate(692.828125 0)"/>
       <use xlink:href="#DejaVuSans-56" transform="translate(744.921875 0)"/>
      </g>
     </g>
    </g>
    <g id="ytick_6">
     <g id="line2d_22">
      <g>
       <use xlink:href="#m64546ec3c1" x="92.228365" y="243.329424" style="stroke: #000000; stroke-width: 0.8"/>
      </g>
     </g>
     <g id="text_15">
      <!-- legacy_lm -->
      <g transform="translate(34.884615 247.128643) scale(0.1 -0.1)">
       <defs>
        <path id="DejaVuSans-4a" d="M 2906 1791
Q 2906 2416 2648 2759
Q 2391 3103 1925 3103
Q 1463 3103 1205 2759
Q 947 2416 947 1791
Q 947 1169 1205 825
Q 1463 481 1925 481
Q 2391 481 2648 825
Q 2906 1169 2906 1791
z
M 3481 434
Q 3481 -459 3084 -895
Q 2688 -1331 1869 -1331
Q 1566 -1331 1297 -1286
Q 1028 -1241 775 -1147
L 775 -588
Q 1028 -725 1275 -790
Q 1522 -856 1778 -856
Q 2344 -856 2625 -561
Q 2906 -266 2906 331
L 2906 616
Q 2728 306 2450 153
Q 2172 0 1784 0
Q 1141 0 747 490
Q 353 981 353 1791
Q 353 2603 747 3093
Q 1141 3584 1784 3584
Q 2172 3584 2450 3431
Q 2728 3278 2906 2969
L 2906 3500
L 3481 3500
L 3481 434
z
" transform="scale(0.015625)"/>
        <path id="DejaVuSans-5c" d="M 2059 -325
Q 1816 -950 1584 -1140
Q 1353 -1331 966 -1331
L 506 -1331
L 506 -850
L 844 -850
Q 1081 -850 1212 -737
Q 1344 -625 1503 -206
L 1606 56
L 191 3500
L 800 3500
L 1894 763
L 2988 3500
L 3597 3500
L 2059 -325
z
" transform="scale(0.015625)"/>
       </defs>
       <use xlink:href="#DejaVuSans-4f"/>
       <use xlink:href="#DejaVuSans-48" transform="translate(27.78125 0)"/>
       <use xlink:href="#DejaVuSans-4a" transform="translate(89.3125 0)"/>
       <use xlink:href="#DejaVuSans-44" transform="translate(152.796875 0)"/>
       <use xlink:href="#DejaVuSans-46" transform="translate(214.078125 0)"/>
       <use xlink:href="#DejaVuSans-5c" transform="translate(269.0625 0)"/>
       <use xlink:href="#DejaVuSans-42" transform="translate(328.25 0)"/>
       <use xlink:href="#DejaVuSans-4f" transform="translate(378.25 0)"/>
       <use xlink:href="#DejaVuSans-50" transform="translate(406.03125 0)"/>
      </g>
     </g>
    </g>
    <g id="ytick_7">
     <g id="line2d_23">
      <g>
       <use xlink:href="#m64546ec3c1" x="92.228365" y="282.5648" style="stroke: #000000; stroke-width: 0.8"/>
      </g>
     </g>
     <g id="text_16">
      <!-- dogleg -->
      <g transform="translate(51.133052 286.364019) scale(0.1 -0.1)">
       <use xlink:href="#DejaVuSans-47"/>
       <use xlink:href="#DejaVuSans-52" transform="translate(63.484375 0)"/>
       <use xlink:href="#DejaVuSans-4a" transform="translate(124.671875 0)"/>
       <use xlink:href="#DejaVuSans-4f" transform="translate(188.15625 0)"/>
       <use xlink:href="#DejaVuSans-48" transform="translate(215.9375 0)"/>
       <use xlink:href="#DejaVuSans-4a" transform="translate(277.46875 0)"/>
      </g>
     </g>
    </g>
   </g>
   <g id="patch_31">
    <path d="M 92.228365 311.598979
L 92.228365 18.118365
" style="fill: none; stroke: #000000; stroke-width: 0.8; stroke-linejoin: miter; stroke-linecap: square"/>
   </g>
   <g id="patch_32">
    <path d="M 463.32 311.598979
L 463.32 18.118365
" style="fill: none; stroke: #000000; stroke-width: 0.8; stroke-linejoin: miter; stroke-linecap: square"/>
   </g>
   <g id="patch_33">
    <path d="M 92.228365 311.598979
L 463.32 311.598979
" style="fill: none; stroke: #000000; stroke-width: 0.8; stroke-linejoin: miter; stroke-linecap: square"/>
   </g>
   <g id="patch_34">
    <path d="M 92.228365 18.118365
L 463.32 18.118365
" style="fill: none; stroke: #000000; stroke-width: 0.8; stroke-linejoin: miter; stroke-linecap: square"/>
   </g>
   <g id="text_17">
    <!-- Cu: standard -->
    <g transform="translate(239.24012 12.118365) scale(0.12 -0.12)">
     <defs>
      <path id="DejaVuSans-26" d="M 4122 4306
L 4122 3641
Q 3803 3938 3442 4084
Q 3081 4231 2675 4231
Q 1875 4231 1450 3742
Q 1025 3253 1025 2328
Q 1025 1406 1450 917
Q 1875 428 2675 428
Q 3081 428 3442 575
Q 3803 722 4122 1019
L 4122 359
Q 3791 134 3420 21
Q 3050 -91 2638 -91
Q 1578 -91 968 557
Q 359 1206 359 2328
Q 359 3453 968 4101
Q 1578 4750 2638 4750
Q 3056 4750 3426 4639
Q 3797 4528 4122 4306
z
" transform="scale(0.015625)"/>
      <path id="DejaVuSans-1d" d="M 750 794
L 1409 794
L 1409 0
L 750 0
L 750 794
z
M 750 3309
L 1409 3309
L 1409 2516
L 750 2516
L 750 3309
z
" transform="scale(0.015625)"/>
     </defs>
     <use xlink:href="#DejaVuSans-26"/>
     <use xlink:href="#DejaVuSans-58" transform="translate(69.828125 0)"/>
     <use xlink:href="#DejaVuSans-1d" transform="translate(133.203125 0)"/>
     <use xlink:href="#DejaVuSans-3" transform="translate(166.890625 0)"/>
     <use xlink:href="#DejaVuSans-56" transform="translate(198.671875 0)"/>
     <use xlink:href="#DejaVuSans-57" transform="translate(250.765625 0)"/>
     <use xlink:href="#DejaVuSans-44" transform="translate(289.96875 0)"/>
     <use xlink:href="#DejaVuSans-51" transform="translate(351.25 0)"/>
     <use xlink:href="#DejaVuSans-47" transform="translate(414.625 0)"/>
     <use xlink:href="#DejaVuSans-44" transform="translate(478.109375 0)"/>
     <use xlink:href="#DejaVuSans-55" transform="translate(539.390625 0)"/>
     <use xlink:href="#DejaVuSans-47" transform="translate(578.75 0)"/>
    </g>
   </g>
   <g id="legend_1">
    <g id="patch_35">
     <path d="M 392.745 307.598979
L 457.72 307.598979
Q 459.32 307.598979 459.32 305.998979
L 459.32 258.796479
Q 459.32 257.196479 457.72 257.196479
L 392.745 257.196479
Q 391.145 257.196479 391.145 258.796479
L 391.145 305.998979
Q 391.145 307.598979 392.745 307.598979
z
" style="fill: #ffffff; opacity: 0.8; stroke: #cccccc; stroke-linejoin: miter"/>
    </g>
    <g id="patch_36">
     <path d="M 394.345 266.475229
L 410.345 266.475229
L 410.345 260.875229
L 394.345 260.875229
z
" style="fill: #999999"/>
    </g>
    <g id="text_18">
     <!-- construct -->
     <g transform="translate(416.745 266.475229) scale(0.08 -0.08)">
      <use xlink:href="#DejaVuSans-46"/>
      <use xlink:href="#DejaVuSans-52" transform="translate(54.984375 0)"/>
      <use xlink:href="#DejaVuSans-51" transform="translate(116.171875 0)"/>
      <use xlink:href="#DejaVuSans-56" transform="translate(179.546875 0)"/>
      <use xlink:href="#DejaVuSans-57" transform="translate(231.640625 0)"/>
      <use xlink:href="#DejaVuSans-55" transform="translate(270.84375 0)"/>
      <use xlink:href="#DejaVuSans-58" transform="translate(311.953125 0)"/>
      <use xlink:href="#DejaVuSans-46" transform="translate(375.328125 0)"/>
      <use xlink:href="#DejaVuSans-57" transform="translate(430.3125 0)"/>
     </g>
    </g>
    <g id="patch_37">
     <path d="M 394.345 278.475854
L 410.345 278.475854
L 410.345 272.875854
L 394.345 272.875854
z
" style="fill: #56b4e9"/>
    </g>
    <g id="text_19">
     <!-- normalize -->
     <g transform="translate(416.745 278.475854) scale(0.08 -0.08)">
      <defs>
       <path id="DejaVuSans-5d" d="M 353 3500
L 3084 3500
L 3084 2975
L 922 459
L 3084 459
L 3084 0
L 275 0
L 275 525
L 2438 3041
L 353 3041
L 353 3500
z
" transform="scale(0.015625)"/>
      </defs>
      <use xlink:href="#DejaVuSans-51"/>
      <use xlink:href="#DejaVuSans-52" transform="translate(63.375 0)"/>
      <use xlink:href="#DejaVuSans-55" transform="translate(124.5625 0)"/>
      <use xlink:href="#DejaVuSans-50" transform="translate(163.921875 0)"/>
      <use xlink:href="#DejaVuSans-44" transform="translate(261.328125 0)"/>
      <use xlink:href="#DejaVuSans-4f" transform="translate(322.609375 0)"/>
      <use xlink:href="#DejaVuSans-4c" transform="translate(350.390625 0)"/>
      <use xlink:href="#DejaVuSans-5d" transform="translate(378.171875 0)"/>
      <use xlink:href="#DejaVuSans-48" transform="translate(430.65625 0)"/>
     </g>
    </g>
    <g id="patch_38">
     <path d="M 394.345 290.476479
L 410.345 290.476479
L 410.345 284.876479
L 394.345 284.876479
z
" style="fill: #d55e00"/>
    </g>
    <g id="text_20">
     <!-- autobk -->
     <g transform="translate(416.745 290.476479) scale(0.08 -0.08)">
      <defs>
       <path id="DejaVuSans-45" d="M 3116 1747
Q 3116 2381 2855 2742
Q 2594 3103 2138 3103
Q 1681 3103 1420 2742
Q 1159 2381 1159 1747
Q 1159 1113 1420 752
Q 1681 391 2138 391
Q 2594 391 2855 752
Q 3116 1113 3116 1747
z
M 1159 2969
Q 1341 3281 1617 3432
Q 1894 3584 2278 3584
Q 2916 3584 3314 3078
Q 3713 2572 3713 1747
Q 3713 922 3314 415
Q 2916 -91 2278 -91
Q 1894 -91 1617 61
Q 1341 213 1159 525
L 1159 0
L 581 0
L 581 4863
L 1159 4863
L 1159 2969
z
" transform="scale(0.015625)"/>
       <path id="DejaVuSans-4e" d="M 581 4863
L 1159 4863
L 1159 1991
L 2875 3500
L 3609 3500
L 1753 1863
L 3688 0
L 2938 0
L 1159 1709
L 1159 0
L 581 0
L 581 4863
z
" transform="scale(0.015625)"/>
      </defs>
      <use xlink:href="#DejaVuSans-44"/>
      <use xlink:href="#DejaVuSans-58" transform="translate(61.28125 0)"/>
      <use xlink:href="#DejaVuSans-57" transform="translate(124.65625 0)"/>
      <use xlink:href="#DejaVuSans-52" transform="translate(163.859375 0)"/>
      <use xlink:href="#DejaVuSans-45" transform="translate(225.046875 0)"/>
      <use xlink:href="#DejaVuSans-4e" transform="translate(288.53125 0)"/>
     </g>
    </g>
    <g id="patch_39">
     <path d="M 394.345 302.477104
L 410.345 302.477104
L 410.345 296.877104
L 394.345 296.877104
z
" style="fill: #009e73"/>
    </g>
    <g id="text_21">
     <!-- fft -->
     <g transform="translate(416.745 302.477104) scale(0.08 -0.08)">
      <defs>
       <path id="DejaVuSans-13ae" d="M 4531 4863
L 4531 4384
L 3981 4384
Q 3672 4384 3551 4259
Q 3431 4134 3431 3809
L 3431 3500
L 4378 3500
L 4378 3053
L 3431 3053
L 3431 0
L 2853 0
L 2853 3053
L 1275 3053
L 1275 0
L 697 0
L 697 3053
L 147 3053
L 147 3500
L 697 3500
L 697 3744
Q 697 4328 969 4595
Q 1241 4863 1831 4863
L 2375 4863
L 2375 4384
L 1825 4384
Q 1516 4384 1394 4259
Q 1275 4134 1275 3809
L 1275 3500
L 2853 3500
L 2853 3744
Q 2853 4328 3125 4595
Q 3397 4863 3988 4863
L 4531 4863
z
" transform="scale(0.015625)"/>
      </defs>
      <use xlink:href="#DejaVuSans-13ae"/>
      <use xlink:href="#DejaVuSans-57" transform="translate(68.890625 0)"/>
     </g>
    </g>
   </g>
  </g>
  <g id="axes_2">
   <g id="patch_40">
    <path d="M 561.908125 311.598979
L 932.99976 311.598979
L 932.99976 18.118365
L 561.908125 18.118365
z
" style="fill: #ffffff"/>
   </g>
   <g id="patch_41">
    <path d="M 561.908125 31.458393
L 561.926647 31.458393
L 561.926647 62.846694
L 561.908125 62.846694
z
" clip-path="url(#p71666609cb)" style="fill: #999999"/>
   </g>
   <g id="patch_42">
    <path d="M 561.908125 70.693769
L 561.980974 70.693769
L 561.980974 102.08207
L 561.908125 102.08207
z
" clip-path="url(#p71666609cb)" style="fill: #999999"/>
   </g>
   <g id="patch_43">
    <path d="M 561.908125 109.929145
L 561.982762 109.929145
L 561.982762 141.317446
L 561.908125 141.317446
z
" clip-path="url(#p71666609cb)" style="fill: #999999"/>
   </g>
   <g id="patch_44">
    <path d="M 561.908125 149.164521
L 561.984823 149.164521
L 561.984823 180.552822
L 561.908125 180.552822
z
" clip-path="url(#p71666609cb)" style="fill: #999999"/>
   </g>
   <g id="patch_45">
    <path d="M 561.908125 188.399898
L 561.981387 188.399898
L 561.981387 219.788199
L 561.908125 219.788199
z
" clip-path="url(#p71666609cb)" style="fill: #999999"/>
   </g>
   <g id="patch_46">
    <path d="M 561.908125 227.635274
L 562.004962 227.635274
L 562.004962 259.023575
L 561.908125 259.023575
z
" clip-path="url(#p71666609cb)" style="fill: #999999"/>
   </g>
   <g id="patch_47">
    <path d="M 561.908125 266.87065
L 562.03858 266.87065
L 562.03858 298.258951
L 561.908125 298.258951
z
" clip-path="url(#p71666609cb)" style="fill: #999999"/>
   </g>
   <g id="patch_48">
    <path d="M 561.926647 31.458393
L 578.245966 31.458393
L 578.245966 62.846694
L 561.926647 62.846694
z
" clip-path="url(#p71666609cb)" style="fill: #56b4e9"/>
   </g>
   <g id="patch_49">
    <path d="M 561.980974 70.693769
L 562.236031 70.693769
L 562.236031 102.08207
L 561.980974 102.08207
z
" clip-path="url(#p71666609cb)" style="fill: #56b4e9"/>
   </g>
   <g id="patch_50">
    <path d="M 561.982762 109.929145
L 562.23885 109.929145
L 562.23885 141.317446
L 561.982762 141.317446
z
" clip-path="url(#p71666609cb)" style="fill: #56b4e9"/>
   </g>
   <g id="patch_51">
    <path d="M 561.984823 149.164521
L 562.244704 149.164521
L 562.244704 180.552822
L 561.984823 180.552822
z
" clip-path="url(#p71666609cb)" style="fill: #56b4e9"/>
   </g>
   <g id="patch_52">
    <path d="M 561.981387 188.399898
L 562.235814 188.399898
L 562.235814 219.788199
L 561.981387 219.788199
z
" clip-path="url(#p71666609cb)" style="fill: #56b4e9"/>
   </g>
   <g id="patch_53">
    <path d="M 562.004962 227.635274
L 562.278298 227.635274
L 562.278298 259.023575
L 562.004962 259.023575
z
" clip-path="url(#p71666609cb)" style="fill: #56b4e9"/>
   </g>
   <g id="patch_54">
    <path d="M 562.03858 266.87065
L 562.346896 266.87065
L 562.346896 298.258951
L 562.03858 298.258951
z
" clip-path="url(#p71666609cb)" style="fill: #56b4e9"/>
   </g>
   <g id="patch_55">
    <path d="M 578.245966 31.458393
L 636.923998 31.458393
L 636.923998 62.846694
L 578.245966 62.846694
z
" clip-path="url(#p71666609cb)" style="fill: #d55e00"/>
   </g>
   <g id="patch_56">
    <path d="M 562.236031 70.693769
L 564.245157 70.693769
L 564.245157 102.08207
L 562.236031 102.08207
z
" clip-path="url(#p71666609cb)" style="fill: #d55e00"/>
   </g>
   <g id="patch_57">
    <path d="M 562.23885 109.929145
L 564.248034 109.929145
L 564.248034 141.317446
L 562.23885 141.317446
z
" clip-path="url(#p71666609cb)" style="fill: #d55e00"/>
   </g>
   <g id="patch_58">
    <path d="M 562.244704 149.164521
L 568.431265 149.164521
L 568.431265 180.552822
L 562.244704 180.552822
z
" clip-path="url(#p71666609cb)" style="fill: #d55e00"/>
   </g>
   <g id="patch_59">
    <path d="M 562.235814 188.399898
L 565.791861 188.399898
L 565.791861 219.788199
L 562.235814 219.788199
z
" clip-path="url(#p71666609cb)" style="fill: #d55e00"/>
   </g>
   <g id="patch_60">
    <path d="M 562.278298 227.635274
L 639.093562 227.635274
L 639.093562 259.023575
L 562.278298 259.023575
z
" clip-path="url(#p71666609cb)" style="fill: #d55e00"/>
   </g>
   <g id="patch_61">
    <path d="M 562.346896 266.87065
L 914.697356 266.87065
L 914.697356 298.258951
L 562.346896 298.258951
z
" clip-path="url(#p71666609cb)" style="fill: #d55e00"/>
   </g>
   <g id="patch_62">
    <path d="M 636.923998 31.458393
L 639.600322 31.458393
L 639.600322 62.846694
L 636.923998 62.846694
z
" clip-path="url(#p71666609cb)" style="fill: #009e73"/>
   </g>
   <g id="patch_63">
    <path d="M 564.245157 70.693769
L 564.845649 70.693769
L 564.845649 102.08207
L 564.245157 102.08207
z
" clip-path="url(#p71666609cb)" style="fill: #009e73"/>
   </g>
   <g id="patch_64">
    <path d="M 564.248034 109.929145
L 564.84912 109.929145
L 564.84912 141.317446
L 564.248034 141.317446
z
" clip-path="url(#p71666609cb)" style="fill: #009e73"/>
   </g>
   <g id="patch_65">
    <path d="M 568.431265 149.164521
L 569.0251 149.164521
L 569.0251 180.552822
L 568.431265 180.552822
z
" clip-path="url(#p71666609cb)" style="fill: #009e73"/>
   </g>
   <g id="patch_66">
    <path d="M 565.791861 188.399898
L 566.392546 188.399898
L 566.392546 219.788199
L 565.791861 219.788199
z
" clip-path="url(#p71666609cb)" style="fill: #009e73"/>
   </g>
   <g id="patch_67">
    <path d="M 639.093562 227.635274
L 639.713083 227.635274
L 639.713083 259.023575
L 639.093562 259.023575
z
" clip-path="url(#p71666609cb)" style="fill: #009e73"/>
   </g>
   <g id="patch_68">
    <path d="M 914.697356 266.87065
L 915.32873 266.87065
L 915.32873 298.258951
L 914.697356 298.258951
z
" clip-path="url(#p71666609cb)" style="fill: #009e73"/>
   </g>
   <g id="matplotlib.axis_3">
    <g id="xtick_9">
     <g id="line2d_24">
      <path d="M 561.908125 311.598979
L 561.908125 18.118365
" clip-path="url(#p71666609cb)" style="fill: none; stroke: #b0b0b0; stroke-opacity: 0.2; stroke-width: 0.8; stroke-linecap: square"/>
     </g>
     <g id="line2d_25">
      <g>
       <use xlink:href="#mb73e8144b0" x="561.908125" y="311.598979" style="stroke: #000000; stroke-width: 0.8"/>
      </g>
     </g>
     <g id="text_22">
      <!-- 0 -->
      <g transform="translate(558.726875 326.196635) scale(0.1 -0.1)">
       <use xlink:href="#DejaVuSans-13"/>
      </g>
     </g>
    </g>
    <g id="xtick_10">
     <g id="line2d_26">
      <path d="M 630.644373 311.598979
L 630.644373 18.118365
" clip-path="url(#p71666609cb)" style="fill: none; stroke: #b0b0b0; stroke-opacity: 0.2; stroke-width: 0.8; stroke-linecap: square"/>
     </g>
     <g id="line2d_27">
      <g>
       <use xlink:href="#mb73e8144b0" x="630.644373" y="311.598979" style="stroke: #000000; stroke-width: 0.8"/>
      </g>
     </g>
     <g id="text_23">
      <!-- 5 -->
      <g transform="translate(627.463123 326.196635) scale(0.1 -0.1)">
       <use xlink:href="#DejaVuSans-18"/>
      </g>
     </g>
    </g>
    <g id="xtick_11">
     <g id="line2d_28">
      <path d="M 699.380622 311.598979
L 699.380622 18.118365
" clip-path="url(#p71666609cb)" style="fill: none; stroke: #b0b0b0; stroke-opacity: 0.2; stroke-width: 0.8; stroke-linecap: square"/>
     </g>
     <g id="line2d_29">
      <g>
       <use xlink:href="#mb73e8144b0" x="699.380622" y="311.598979" style="stroke: #000000; stroke-width: 0.8"/>
      </g>
     </g>
     <g id="text_24">
      <!-- 10 -->
      <g transform="translate(693.018122 326.196635) scale(0.1 -0.1)">
       <use xlink:href="#DejaVuSans-14"/>
       <use xlink:href="#DejaVuSans-13" transform="translate(63.625 0)"/>
      </g>
     </g>
    </g>
    <g id="xtick_12">
     <g id="line2d_30">
      <path d="M 768.11687 311.598979
L 768.11687 18.118365
" clip-path="url(#p71666609cb)" style="fill: none; stroke: #b0b0b0; stroke-opacity: 0.2; stroke-width: 0.8; stroke-linecap: square"/>
     </g>
     <g id="line2d_31">
      <g>
       <use xlink:href="#mb73e8144b0" x="768.11687" y="311.598979" style="stroke: #000000; stroke-width: 0.8"/>
      </g>
     </g>
     <g id="text_25">
      <!-- 15 -->
      <g transform="translate(761.75437 326.196635) scale(0.1 -0.1)">
       <use xlink:href="#DejaVuSans-14"/>
       <use xlink:href="#DejaVuSans-18" transform="translate(63.625 0)"/>
      </g>
     </g>
    </g>
    <g id="xtick_13">
     <g id="line2d_32">
      <path d="M 836.853119 311.598979
L 836.853119 18.118365
" clip-path="url(#p71666609cb)" style="fill: none; stroke: #b0b0b0; stroke-opacity: 0.2; stroke-width: 0.8; stroke-linecap: square"/>
     </g>
     <g id="line2d_33">
      <g>
       <use xlink:href="#mb73e8144b0" x="836.853119" y="311.598979" style="stroke: #000000; stroke-width: 0.8"/>
      </g>
     </g>
     <g id="text_26">
      <!-- 20 -->
      <g transform="translate(830.490619 326.196635) scale(0.1 -0.1)">
       <use xlink:href="#DejaVuSans-15"/>
       <use xlink:href="#DejaVuSans-13" transform="translate(63.625 0)"/>
      </g>
     </g>
    </g>
    <g id="xtick_14">
     <g id="line2d_34">
      <path d="M 905.589367 311.598979
L 905.589367 18.118365
" clip-path="url(#p71666609cb)" style="fill: none; stroke: #b0b0b0; stroke-opacity: 0.2; stroke-width: 0.8; stroke-linecap: square"/>
     </g>
     <g id="line2d_35">
      <g>
       <use xlink:href="#mb73e8144b0" x="905.589367" y="311.598979" style="stroke: #000000; stroke-width: 0.8"/>
      </g>
     </g>
     <g id="text_27">
      <!-- 25 -->
      <g transform="translate(899.226867 326.196635) scale(0.1 -0.1)">
       <use xlink:href="#DejaVuSans-15"/>
       <use xlink:href="#DejaVuSans-18" transform="translate(63.625 0)"/>
      </g>
     </g>
    </g>
    <g id="text_28">
     <!-- Milliseconds per fresh spectrum -->
     <g transform="translate(667.857849 340.197416) scale(0.1 -0.1)">
      <use xlink:href="#DejaVuSans-30"/>
      <use xlink:href="#DejaVuSans-4c" transform="translate(86.28125 0)"/>
      <use xlink:href="#DejaVuSans-4f" transform="translate(114.0625 0)"/>
      <use xlink:href="#DejaVuSans-4f" transform="translate(141.84375 0)"/>
      <use xlink:href="#DejaVuSans-4c" transform="translate(169.625 0)"/>
      <use xlink:href="#DejaVuSans-56" transform="translate(197.40625 0)"/>
      <use xlink:href="#DejaVuSans-48" transform="translate(249.5 0)"/>
      <use xlink:href="#DejaVuSans-46" transform="translate(311.03125 0)"/>
      <use xlink:href="#DejaVuSans-52" transform="translate(366.015625 0)"/>
      <use xlink:href="#DejaVuSans-51" transform="translate(427.203125 0)"/>
      <use xlink:href="#DejaVuSans-47" transform="translate(490.578125 0)"/>
      <use xlink:href="#DejaVuSans-56" transform="translate(554.0625 0)"/>
      <use xlink:href="#DejaVuSans-3" transform="translate(606.15625 0)"/>
      <use xlink:href="#DejaVuSans-53" transform="translate(637.9375 0)"/>
      <use xlink:href="#DejaVuSans-48" transform="translate(701.421875 0)"/>
      <use xlink:href="#DejaVuSans-55" transform="translate(762.953125 0)"/>
      <use xlink:href="#DejaVuSans-3" transform="translate(804.0625 0)"/>
      <use xlink:href="#DejaVuSans-49" transform="translate(835.84375 0)"/>
      <use xlink:href="#DejaVuSans-55" transform="translate(871.046875 0)"/>
      <use xlink:href="#DejaVuSans-48" transform="translate(909.953125 0)"/>
      <use xlink:href="#DejaVuSans-56" transform="translate(971.484375 0)"/>
      <use xlink:href="#DejaVuSans-4b" transform="translate(1023.578125 0)"/>
      <use xlink:href="#DejaVuSans-3" transform="translate(1086.953125 0)"/>
      <use xlink:href="#DejaVuSans-56" transform="translate(1118.734375 0)"/>
      <use xlink:href="#DejaVuSans-53" transform="translate(1170.828125 0)"/>
      <use xlink:href="#DejaVuSans-48" transform="translate(1234.3125 0)"/>
      <use xlink:href="#DejaVuSans-46" transform="translate(1295.84375 0)"/>
      <use xlink:href="#DejaVuSans-57" transform="translate(1350.828125 0)"/>
      <use xlink:href="#DejaVuSans-55" transform="translate(1390.03125 0)"/>
      <use xlink:href="#DejaVuSans-58" transform="translate(1431.140625 0)"/>
      <use xlink:href="#DejaVuSans-50" transform="translate(1494.515625 0)"/>
     </g>
    </g>
   </g>
   <g id="matplotlib.axis_4">
    <g id="ytick_8">
     <g id="line2d_36">
      <g>
       <use xlink:href="#m64546ec3c1" x="561.908125" y="47.152543" style="stroke: #000000; stroke-width: 0.8"/>
      </g>
     </g>
     <g id="text_29">
      <!-- larch -->
      <g transform="translate(530.275313 50.951762) scale(0.1 -0.1)">
       <use xlink:href="#DejaVuSans-4f"/>
       <use xlink:href="#DejaVuSans-44" transform="translate(27.78125 0)"/>
       <use xlink:href="#DejaVuSans-55" transform="translate(89.0625 0)"/>
       <use xlink:href="#DejaVuSans-46" transform="translate(127.96875 0)"/>
       <use xlink:href="#DejaVuSans-4b" transform="translate(182.953125 0)"/>
      </g>
     </g>
    </g>
    <g id="ytick_9">
     <g id="line2d_37">
      <g>
       <use xlink:href="#m64546ec3c1" x="561.908125" y="86.38792" style="stroke: #000000; stroke-width: 0.8"/>
      </g>
     </g>
     <g id="text_30">
      <!-- shipped_default -->
      <g transform="translate(475.19875 90.187138) scale(0.1 -0.1)">
       <use xlink:href="#DejaVuSans-56"/>
       <use xlink:href="#DejaVuSans-4b" transform="translate(52.09375 0)"/>
       <use xlink:href="#DejaVuSans-4c" transform="translate(115.46875 0)"/>
       <use xlink:href="#DejaVuSans-53" transform="translate(143.25 0)"/>
       <use xlink:href="#DejaVuSans-53" transform="translate(206.734375 0)"/>
       <use xlink:href="#DejaVuSans-48" transform="translate(270.21875 0)"/>
       <use xlink:href="#DejaVuSans-47" transform="translate(331.75 0)"/>
       <use xlink:href="#DejaVuSans-42" transform="translate(395.234375 0)"/>
       <use xlink:href="#DejaVuSans-47" transform="translate(445.234375 0)"/>
       <use xlink:href="#DejaVuSans-48" transform="translate(508.71875 0)"/>
       <use xlink:href="#DejaVuSans-49" transform="translate(570.25 0)"/>
       <use xlink:href="#DejaVuSans-44" transform="translate(605.453125 0)"/>
       <use xlink:href="#DejaVuSans-58" transform="translate(666.734375 0)"/>
       <use xlink:href="#DejaVuSans-4f" transform="translate(730.109375 0)"/>
       <use xlink:href="#DejaVuSans-57" transform="translate(757.890625 0)"/>
      </g>
     </g>
    </g>
    <g id="ytick_10">
     <g id="line2d_38">
      <g>
       <use xlink:href="#m64546ec3c1" x="561.908125" y="125.623296" style="stroke: #000000; stroke-width: 0.8"/>
      </g>
     </g>
     <g id="text_31">
      <!-- direct_cached -->
      <g transform="translate(485.355 129.422514) scale(0.1 -0.1)">
       <use xlink:href="#DejaVuSans-47"/>
       <use xlink:href="#DejaVuSans-4c" transform="translate(63.484375 0)"/>
       <use xlink:href="#DejaVuSans-55" transform="translate(91.265625 0)"/>
       <use xlink:href="#DejaVuSans-48" transform="translate(130.171875 0)"/>
       <use xlink:href="#DejaVuSans-46" transform="translate(191.703125 0)"/>
       <use xlink:href="#DejaVuSans-57" transform="translate(246.6875 0)"/>
       <use xlink:href="#DejaVuSans-42" transform="translate(285.890625 0)"/>
       <use xlink:href="#DejaVuSans-46" transform="translate(335.890625 0)"/>
       <use xlink:href="#DejaVuSans-44" transform="translate(390.875 0)"/>
       <use xlink:href="#DejaVuSans-46" transform="translate(452.15625 0)"/>
       <use xlink:href="#DejaVuSans-4b" transform="translate(507.140625 0)"/>
       <use xlink:href="#DejaVuSans-48" transform="translate(570.515625 0)"/>
       <use xlink:href="#DejaVuSans-47" transform="translate(632.046875 0)"/>
      </g>
     </g>
    </g>
    <g id="ytick_11">
     <g id="line2d_39">
      <g>
       <use xlink:href="#m64546ec3c1" x="561.908125" y="164.858672" style="stroke: #000000; stroke-width: 0.8"/>
      </g>
     </g>
     <g id="text_32">
      <!-- direct_uncached -->
      <g transform="translate(472.68 168.657891) scale(0.1 -0.1)">
       <use xlink:href="#DejaVuSans-47"/>
       <use xlink:href="#DejaVuSans-4c" transform="translate(63.484375 0)"/>
       <use xlink:href="#DejaVuSans-55" transform="translate(91.265625 0)"/>
       <use xlink:href="#DejaVuSans-48" transform="translate(130.171875 0)"/>
       <use xlink:href="#DejaVuSans-46" transform="translate(191.703125 0)"/>
       <use xlink:href="#DejaVuSans-57" transform="translate(246.6875 0)"/>
       <use xlink:href="#DejaVuSans-42" transform="translate(285.890625 0)"/>
       <use xlink:href="#DejaVuSans-58" transform="translate(335.890625 0)"/>
       <use xlink:href="#DejaVuSans-51" transform="translate(399.265625 0)"/>
       <use xlink:href="#DejaVuSans-46" transform="translate(462.640625 0)"/>
       <use xlink:href="#DejaVuSans-44" transform="translate(517.625 0)"/>
       <use xlink:href="#DejaVuSans-46" transform="translate(578.90625 0)"/>
       <use xlink:href="#DejaVuSans-4b" transform="translate(633.890625 0)"/>
       <use xlink:href="#DejaVuSans-48" transform="translate(697.265625 0)"/>
       <use xlink:href="#DejaVuSans-47" transform="translate(758.796875 0)"/>
      </g>
     </g>
    </g>
    <g id="ytick_12">
     <g id="line2d_40">
      <g>
       <use xlink:href="#m64546ec3c1" x="561.908125" y="204.094048" style="stroke: #000000; stroke-width: 0.8"/>
      </g>
     </g>
     <g id="text_33">
      <!-- direct_two_pass -->
      <g transform="translate(475.206563 207.893267) scale(0.1 -0.1)">
       <use xlink:href="#DejaVuSans-47"/>
       <use xlink:href="#DejaVuSans-4c" transform="translate(63.484375 0)"/>
       <use xlink:href="#DejaVuSans-55" transform="translate(91.265625 0)"/>
       <use xlink:href="#DejaVuSans-48" transform="translate(130.171875 0)"/>
       <use xlink:href="#DejaVuSans-46" transform="translate(191.703125 0)"/>
       <use xlink:href="#DejaVuSans-57" transform="translate(246.6875 0)"/>
       <use xlink:href="#DejaVuSans-42" transform="translate(285.890625 0)"/>
       <use xlink:href="#DejaVuSans-57" transform="translate(335.890625 0)"/>
       <use xlink:href="#DejaVuSans-5a" transform="translate(375.09375 0)"/>
       <use xlink:href="#DejaVuSans-52" transform="translate(456.875 0)"/>
       <use xlink:href="#DejaVuSans-42" transform="translate(518.0625 0)"/>
       <use xlink:href="#DejaVuSans-53" transform="translate(568.0625 0)"/>
       <use xlink:href="#DejaVuSans-44" transform="translate(631.546875 0)"/>
       <use xlink:href="#DejaVuSans-56" transform="translate(692.828125 0)"/>
       <use xlink:href="#DejaVuSans-56" transform="translate(744.921875 0)"/>
      </g>
     </g>
    </g>
    <g id="ytick_13">
     <g id="line2d_41">
      <g>
       <use xlink:href="#m64546ec3c1" x="561.908125" y="243.329424" style="stroke: #000000; stroke-width: 0.8"/>
      </g>
     </g>
     <g id="text_34">
      <!-- legacy_lm -->
      <g transform="translate(504.564375 247.128643) scale(0.1 -0.1)">
       <use xlink:href="#DejaVuSans-4f"/>
       <use xlink:href="#DejaVuSans-48" transform="translate(27.78125 0)"/>
       <use xlink:href="#DejaVuSans-4a" transform="translate(89.3125 0)"/>
       <use xlink:href="#DejaVuSans-44" transform="translate(152.796875 0)"/>
       <use xlink:href="#DejaVuSans-46" transform="translate(214.078125 0)"/>
       <use xlink:href="#DejaVuSans-5c" transform="translate(269.0625 0)"/>
       <use xlink:href="#DejaVuSans-42" transform="translate(328.25 0)"/>
       <use xlink:href="#DejaVuSans-4f" transform="translate(378.25 0)"/>
       <use xlink:href="#DejaVuSans-50" transform="translate(406.03125 0)"/>
      </g>
     </g>
    </g>
    <g id="ytick_14">
     <g id="line2d_42">
      <g>
       <use xlink:href="#m64546ec3c1" x="561.908125" y="282.5648" style="stroke: #000000; stroke-width: 0.8"/>
      </g>
     </g>
     <g id="text_35">
      <!-- dogleg -->
      <g transform="translate(520.812813 286.364019) scale(0.1 -0.1)">
       <use xlink:href="#DejaVuSans-47"/>
       <use xlink:href="#DejaVuSans-52" transform="translate(63.484375 0)"/>
       <use xlink:href="#DejaVuSans-4a" transform="translate(124.671875 0)"/>
       <use xlink:href="#DejaVuSans-4f" transform="translate(188.15625 0)"/>
       <use xlink:href="#DejaVuSans-48" transform="translate(215.9375 0)"/>
       <use xlink:href="#DejaVuSans-4a" transform="translate(277.46875 0)"/>
      </g>
     </g>
    </g>
   </g>
   <g id="patch_69">
    <path d="M 561.908125 311.598979
L 561.908125 18.118365
" style="fill: none; stroke: #000000; stroke-width: 0.8; stroke-linejoin: miter; stroke-linecap: square"/>
   </g>
   <g id="patch_70">
    <path d="M 932.99976 311.598979
L 932.99976 18.118365
" style="fill: none; stroke: #000000; stroke-width: 0.8; stroke-linejoin: miter; stroke-linecap: square"/>
   </g>
   <g id="patch_71">
    <path d="M 561.908125 311.598979
L 932.99976 311.598979
" style="fill: none; stroke: #000000; stroke-width: 0.8; stroke-linejoin: miter; stroke-linecap: square"/>
   </g>
   <g id="patch_72">
    <path d="M 561.908125 18.118365
L 932.99976 18.118365
" style="fill: none; stroke: #000000; stroke-width: 0.8; stroke-linejoin: miter; stroke-linecap: square"/>
   </g>
   <g id="text_36">
    <!-- Cu: fine_fft -->
    <g transform="translate(714.774567 12.118365) scale(0.12 -0.12)">
     <defs>
      <path id="DejaVuSans-13af" d="M 3431 3500
L 3431 0
L 2853 0
L 2853 3053
L 1275 3053
L 1275 0
L 697 0
L 697 3053
L 147 3053
L 147 3500
L 697 3500
L 697 3744
Q 697 4316 967 4589
Q 1238 4863 1797 4863
L 2375 4863
L 2375 4384
L 1825 4384
Q 1516 4384 1395 4259
Q 1275 4134 1275 3809
L 1275 3500
L 3431 3500
z
M 2853 4856
L 3431 4856
L 3431 4128
L 2853 4128
L 2853 4856
z
" transform="scale(0.015625)"/>
     </defs>
     <use xlink:href="#DejaVuSans-26"/>
     <use xlink:href="#DejaVuSans-58" transform="translate(69.828125 0)"/>
     <use xlink:href="#DejaVuSans-1d" transform="translate(133.203125 0)"/>
     <use xlink:href="#DejaVuSans-3" transform="translate(166.890625 0)"/>
     <use xlink:href="#DejaVuSans-13af" transform="translate(198.671875 0)"/>
     <use xlink:href="#DejaVuSans-51" transform="translate(261.65625 0)"/>
     <use xlink:href="#DejaVuSans-48" transform="translate(325.03125 0)"/>
     <use xlink:href="#DejaVuSans-42" transform="translate(386.5625 0)"/>
     <use xlink:href="#DejaVuSans-13ae" transform="translate(436.5625 0)"/>
     <use xlink:href="#DejaVuSans-57" transform="translate(505.453125 0)"/>
    </g>
   </g>
  </g>
 </g>
 <defs>
  <clipPath id="pa569c151dc">
   <rect x="92.228365" y="18.118365" width="371.091635" height="293.480614"/>
  </clipPath>
  <clipPath id="p71666609cb">
   <rect x="561.908125" y="18.118365" width="371.091635" height="293.480614"/>
  </clipPath>
 </defs>
</svg>
